<?xml version="1.0" standalone="yes"?>
<svg xmlns="http://www.w3.org/2000/svg" width="557" height="557">
<path style="fill:#ffffff; stroke:none;" d="M0 0L0 557L557 557L557 0L0 0z"/>
<path style="fill:#eca376; stroke:none;" d="M256 26C259.121 27.4009 262.589 27.7304 266 28C262.829 26.1003 259.646 26.0306 256 26z"/>
<path style="fill:#e39f6e; stroke:none;" d="M245 35C248.647 32.6007 251.698 30.0223 256 29L256 27C250.88 27.7476 247.267 30.3517 245 35z"/>
<path style="fill:#f89a54; stroke:none;" d="M163 125C168.481 124.999 173.683 123.097 179 123.108C184.662 123.12 192.738 127.737 196.956 131.343C205.093 138.299 204.696 153.718 198.196 161.857C195.361 165.406 189.276 168.077 185 169.387C177.962 171.542 171.054 168.15 164 168C162.21 162.368 157.585 159.448 157 153C147.08 155.955 146.371 164.824 143.231 173C141.416 177.725 138.016 181.402 136.015 186.015C133.646 191.475 133.081 197.395 130.735 202.83C128.297 208.479 124.864 212.719 124 219C141.126 221.52 156.481 230.853 174 231C175.239 235.235 178.554 234.094 181.981 235.88C184.92 237.411 187.91 240.741 188.657 244.019C189.344 247.028 188.403 250.238 186.491 252.606C181.606 258.657 177.476 264.508 179.324 273C180.748 279.543 189.487 284.521 195.042 279.042C200.946 273.217 198.983 261.422 199 254C199.01 249.702 199.231 244.241 204.06 242.481C208.256 240.953 214.733 243.704 219 244.407C232.524 246.635 245.455 251.137 259 253.06C262.922 253.617 266.793 255.827 270.861 254.782C275.864 253.497 277.863 245.173 279.542 241C284.677 228.238 290.422 216.67 293 203C289.527 203.231 286.44 204.704 282.985 204.946C273.386 205.618 263.688 201.64 257.532 193.96C243.892 176.941 258.359 149.593 280 150.129C291.634 150.417 298.937 159.011 308 165C309.209 155.722 317.791 147.735 315 138L317 138L316 134C319.971 133.149 321.197 125.714 322.694 122.028C327.148 111.07 333.615 101.147 337.667 90C338.785 86.9218 344.298 78.4937 340.667 75.7222C337.434 73.2551 327.955 75 324 75L287 75C280.964 75 274.164 75.9691 269.222 71.6667C267.057 69.7812 264.271 65.9894 264.361 63C264.526 57.5221 269.59 56.0534 271.889 51.9722C277.133 42.663 271.575 28.606 261 27.2222C249.872 25.7662 242.539 36.9553 245.306 47C246.81 52.4613 252.015 55.3419 254.306 60.0833C258.257 68.2616 246.596 72.898 240.972 74.6667C236.878 75.9543 231.269 75 227 75L198 75C193.912 75 187.053 73.6835 183.389 75.6945C179.575 77.7879 178.65 82.2588 177.333 86C174.859 93.0337 172.104 99.9853 169.667 106.972C167.442 113.347 163.122 117.753 163 125z"/>
<path style="fill:#d7a580; stroke:none;" d="M268.667 30.3333C268.222 30.778 269.278 30.7222 269.333 30.6667C269.778 30.2223 268.722 30.2777 268.667 30.3333z"/>
<path style="fill:#e99d63; stroke:none;" d="M270 31C271.627 36.2924 272.996 40.3749 273 46C275.184 40.796 274.224 34.7279 270 31z"/>
<path style="fill:#ef9d65; stroke:none;" d="M244 35C244 42.3074 242.595 50.9348 250 55C248.591 52.0166 246.422 49.1842 245.51 46C244.459 42.3328 245.487 38.5427 244 35z"/>
<path style="fill:#dea079; stroke:none;" d="M243 37L243 48C244.431 44.5899 244.431 40.41 243 37z"/>
<path style="fill:#e0a17e; stroke:none;" d="M274 37C273.989 41.0799 273.51 44.9633 273 49C275.383 45.5121 275.631 40.8869 274 37z"/>
<path style="fill:#e2a377; stroke:none;" d="M250.667 56.3333C250.222 56.778 251.278 56.7221 251.333 56.6667C251.778 56.2224 250.722 56.2777 250.667 56.3333z"/>
<path style="fill:#cea088; stroke:none;" d="M266.667 56.3333C266.222 56.7777 267.278 56.7223 267.333 56.6667C267.778 56.2222 266.722 56.2778 266.667 56.3333z"/>
<path style="fill:#df9f71; stroke:none;" d="M252 58C253.983 63.8162 252.634 67.0631 248 71C254.585 71.9072 257.131 61.3268 252 58z"/>
<path style="fill:#dea071; stroke:none;" d="M268 70C271.906 76.3808 280.484 75 287 75L340 75C334.293 72.6051 326.154 74 320 74C303.263 74 283.634 76.9475 268 70M181 78C187.05 73.9132 193.961 75 201 75L228 75C233.339 75 238.854 75.5211 244 74C239.698 72.4569 233.655 73.9997 229 74L195 74C190.012 74 182.883 72.3277 181 78z"/>
<path style="fill:#98c13d; stroke:none;" d="M348 92C345.151 107.281 335.709 121.129 330.901 136C327.129 147.667 325.281 163.75 315.532 172.567C302.224 184.602 289.905 161.822 276.015 165.317C268.277 167.264 262.194 182.262 269.724 187.682C277.135 193.017 288.282 185.865 295.906 187.372C300.729 188.325 301.99 194.568 307 196C307 212.823 297.961 229.271 292.409 245C290.142 251.421 286.315 259.133 287 266L284 267C286.212 273.663 293.78 269.193 299 269.015C305.207 268.803 312.803 269.083 318.83 267.701C327.104 265.805 335.572 262.5 344.08 266.005C350.797 268.771 354.811 274.37 352.491 281.83C351.697 284.382 349.825 286.341 349.278 289.015C347.656 296.939 351.253 303.514 358.289 307.191C364.55 310.462 375.241 309.136 376.772 300.985C377.43 297.477 377.509 292.306 375.825 289.09C372.985 283.664 365.964 278.967 366.421 272.004C366.708 267.633 372.131 262.053 376.09 260.589C382.968 258.045 391.76 258.58 399 257.715C407.767 256.666 416.276 253.695 425 253C423.721 245.823 419.257 240.284 416.109 233.911C410.035 221.617 405.405 208.683 398 197L396 197C394.001 201.756 392.184 206.686 388.956 210.791C381.033 220.866 365.51 227.341 354.595 218.197C345.947 210.952 336.656 189.182 350 182L350 177C357.065 175.251 363.329 170.418 370.961 170.419C375.384 170.42 379.418 173.597 384 174C382.973 161.438 375.639 151.096 370.518 140.001C366.458 131.205 363.25 121.904 359.309 113C356.595 106.869 353.641 95.6983 348 92z"/>
<path style="fill:#d5a38a; stroke:none;" d="M334.333 96.6667C334.278 96.7222 334.222 97.7778 334.667 97.3333C334.722 97.2778 334.778 96.2221 334.333 96.6667z"/>
<path style="fill:#9cb864; stroke:none;" d="M346 97L344 105C346.204 102.445 347.227 100.245 346 97z"/>
<path style="fill:#9cb76a; stroke:none;" d="M353 100L354 104C354.393 102.076 354.146 101.64 353 100z"/>
<path style="fill:#d7a280; stroke:none;" d="M331.333 103.667C331.278 103.722 331.222 104.778 331.667 104.333C331.722 104.278 331.778 103.222 331.333 103.667z"/>
<path style="fill:#e09e6e; stroke:none;" d="M169 106L168 110C169.303 108.332 169.553 108.008 169 106z"/>
<path style="fill:#de9f73; stroke:none;" d="M330 106C327.788 109.892 326.393 113.525 326 118C328.209 114.674 330.7 109.998 330 106z"/>
<path style="fill:#ed9e66; stroke:none;" d="M325 114C324.29 119.456 320.647 131.019 316 134L317 138L315 138L316 142C319.207 137.578 320.64 132.023 322.71 127C324.49 122.679 326.886 118.626 325 114z"/>
<path style="fill:#e4a071; stroke:none;" d="M162 122L162 128L170 126C167.008 124.688 164.468 124.357 162 122z"/>
<path style="fill:#e5a575; stroke:none;" d="M174 123C178.394 125.065 184.218 125.821 189 127C184.61 122.915 179.714 123.001 174 123z"/>
<path style="fill:#c1a28d; stroke:none;" d="M180 124C181.248 124.685 181.548 124.749 183 125C181.752 124.315 181.452 124.251 180 124z"/>
<path style="fill:#98b467; stroke:none;" d="M335 125L334 129C335.303 127.332 335.553 127.008 335 125z"/>
<path style="fill:#d3a488; stroke:none;" d="M322.333 126.667C322.278 126.722 322.222 127.778 322.667 127.333C322.722 127.278 322.778 126.222 322.333 126.667z"/>
<path style="fill:#e2a276; stroke:none;" d="M192 128C193.223 129.195 193.42 129.316 195 130C193.777 128.805 193.58 128.684 192 128z"/>
<path style="fill:#9fb865; stroke:none;" d="M366 129L367 133C367.393 131.076 367.146 130.64 366 129z"/>
<path style="fill:#e09d69; stroke:none;" d="M195 130C197.186 133.322 199.559 136.274 201 140C202.619 135.264 199.042 131.932 195 130z"/>
<path style="fill:#9fb56a; stroke:none;" d="M369 135C369.366 138.391 370.472 140.963 372 144C372.953 140.526 371.215 137.687 369 135z"/>
<path style="fill:#d5a486; stroke:none;" d="M318.333 136.667C318.278 136.722 318.222 137.778 318.667 137.333C318.722 137.278 318.778 136.222 318.333 136.667z"/>
<path style="fill:#d9a377; stroke:none;" d="M202 140L202 144C202.71 142.24 202.71 141.759 202 140z"/>
<path style="fill:#9eb766; stroke:none;" d="M329 140L328 144C329.303 142.332 329.553 142.008 329 140z"/>
<path style="fill:#dba078; stroke:none;" d="M203 144L203 148C203.71 146.24 203.71 145.759 203 144z"/>
<path style="fill:#9dbe4d; stroke:none;" d="M328 144C325.589 153.191 319.567 161.614 317 171C321.879 166.051 322.659 160.044 325.539 154.039C327.288 150.39 329.67 148.094 328 144z"/>
<path style="fill:#9fbd67; stroke:none;" d="M373 144L374 148C374.393 146.076 374.146 145.64 373 144z"/>
<path style="fill:#a3b96e; stroke:none;" d="M327 145L326 149C327.303 147.332 327.553 147.008 327 145z"/>
<path style="fill:#a0b86c; stroke:none;" d="M375 148L376 152C376.393 150.076 376.146 149.64 375 148z"/>
<path style="fill:#d9996d; stroke:none;" d="M151 150L149 156C150.84 154.283 151.349 153.434 152 151L156 151C154.231 150.221 152.964 150.088 151 150z"/>
<path style="fill:#d7a081; stroke:none;" d="M275 150C277.89 151.213 280.874 150.998 284 151C281.11 149.787 278.126 150.002 275 150z"/>
<path style="fill:#f0a065; stroke:none;" d="M152 151C150.405 154.496 148.024 157.233 147 161C150.324 158.2 153.055 154.913 157 153C157.159 157.974 158.474 162.431 163 165C161.248 159.034 158.868 151.534 152 151z"/>
<path style="fill:#de9b6e; stroke:none;" d="M271 151C272.506 151.683 273.315 151.826 275 152C273.494 151.317 272.685 151.174 271 151z"/>
<path style="fill:#e39c6e; stroke:none;" d="M284 151C286.283 152.222 288.428 152.652 291 153C288.686 151.409 286.81 151.142 284 151z"/>
<path style="fill:#d4a480; stroke:none;" d="M267 153C268.659 153.406 269.242 153.309 271 153C269.191 152.426 268.931 152.535 267 153z"/>
<path style="fill:#e4a57a; stroke:none;" d="M291 153C292.458 154.081 293.248 154.436 295 155C293.457 153.733 292.952 153.511 291 153z"/>
<path style="fill:#daa27d; stroke:none;" d="M260 160L266 156C262.712 155.325 261.415 157.181 260 160z"/>
<path style="fill:#da9b70; stroke:none;" d="M200 156C198.44 159.273 196.794 161.687 194 164C198.316 164.926 201.004 159.783 200 156z"/>
<path style="fill:#9eba54; stroke:none;" d="M379 156C379.619 162.047 382.595 168.42 385 174C387.112 168.422 382.572 160.272 379 156z"/>
<path style="fill:#d2a689; stroke:none;" d="M308.333 160.667C308.278 160.722 308.222 161.778 308.667 161.333C308.722 161.278 308.778 160.222 308.333 160.667z"/>
<path style="fill:#eb9b66; stroke:none;" d="M256 162C253.946 165.777 253.048 168.687 253 173C255.009 169.823 257.029 165.711 256 162z"/>
<path style="fill:#d7a584; stroke:none;" d="M257.333 162.667C257.278 162.722 257.222 163.778 257.667 163.333C257.722 163.278 257.778 162.222 257.333 162.667z"/>
<path style="fill:#9aba55; stroke:none;" d="M274 164C277.501 165.469 281.383 164.746 284.996 166.109C289.718 167.89 293.117 171.541 298 173C291.506 166.041 283.602 161.72 274 164z"/>
<path style="fill:#ffd4b4; stroke:none;" d="M163 164L164 165L163 164z"/>
<path style="fill:#e3a377; stroke:none;" d="M164 165C164.578 167.697 165.261 167.789 168 168C166.659 166.726 165.597 165.959 164 165z"/>
<path style="fill:#98b759; stroke:none;" d="M267 172C270.057 170.077 272.023 168.019 274 165C270.499 166.649 268.649 168.499 267 172z"/>
<path style="fill:#ea9e62; stroke:none;" d="M144 166C142.633 170.048 141.221 173.698 141 178C143.428 174.648 145.527 170.033 144 166z"/>
<path style="fill:#d5e7b7; stroke:none;" d="M384 167L385 168L384 167z"/>
<path style="fill:#9eaf82; stroke:none;" d="M293.667 169.333C293.222 169.778 294.278 169.722 294.333 169.667C294.778 169.222 293.722 169.278 293.667 169.333z"/>
<path style="fill:#9eb473; stroke:none;" d="M369 170C371.052 170.874 372.747 170.953 375 171C372.948 170.126 371.253 170.047 369 170z"/>
<path style="fill:#a0bc55; stroke:none;" d="M298 173C302.294 178.309 313.554 176.306 317 171C309.65 173.01 305.642 174.742 298 173z"/>
<path style="fill:#a1b866; stroke:none;" d="M362 172C364.34 172.566 366.571 172.176 369 172C366.413 170.935 364.679 171.219 362 172z"/>
<path style="fill:#9eba56; stroke:none;" d="M266 172C266 177.812 264.201 185.802 270 189C267.256 183.283 268.308 177.501 266 172z"/>
<path style="fill:#9aba55; stroke:none;" d="M350 177L350 181C353.566 178.336 356.899 175.793 361 174C356.984 172.681 353.696 175.558 350 177z"/>
<path style="fill:#9eb474; stroke:none;" d="M265 174L265 185C266.431 181.59 266.431 177.41 265 174z"/>
<path style="fill:#d69f81; stroke:none;" d="M252 175L252 185C253.346 181.793 253.346 178.207 252 175z"/>
<path style="fill:#dca27d; stroke:none;" d="M140 176L139 181C140.318 179.074 140.651 178.234 140 176z"/>
<path style="fill:#9cbb5d; stroke:none;" d="M347 182C344.468 187.875 343.018 193.601 343 200C345.539 194.355 346.617 187.84 349 182L347 182z"/>
<path style="fill:#9ebc58; stroke:none;" d="M291 187L301 191C298.311 187.065 295.547 187.016 291 187z"/>
<path style="fill:#9eb273; stroke:none;" d="M290 188C292.332 188.984 294.457 188.981 297 189C294.668 188.015 292.543 188.019 290 188z"/>
<path style="fill:#9cba56; stroke:none;" d="M270 189C275.715 191.398 283.831 190 290 190C284.285 187.602 276.169 189 270 189z"/>
<path style="fill:#a0b773; stroke:none;" d="M273 190C277.217 191.769 282.459 191 287 191C282.783 189.231 277.541 190 273 190z"/>
<path style="fill:#ddf1b4; stroke:none;" d="M300 191L301 192L300 191z"/>
<path style="fill:#9fb575; stroke:none;" d="M344 194L344 202C345.161 199.23 345.161 196.77 344 194z"/>
<path style="fill:#e7a072; stroke:none;" d="M132 195L129 205C131.914 202.677 133.227 198.536 132 195z"/>
<path style="fill:#a0c05d; stroke:none;" d="M305 196C306.082 201.851 304.845 206.255 304 212C307.035 208.183 309.126 199.605 305 196z"/>
<path style="fill:#9bbb58; stroke:none;" d="M390 209C393.486 205.436 394.373 200.414 398 197C392.527 195.85 391.109 204.934 390 209z"/>
<path style="fill:#9eb766; stroke:none;" d="M398 197C398.684 198.58 398.805 198.777 400 200C399.316 198.42 399.195 198.223 398 197z"/>
<path style="fill:#d9b9a2; stroke:none;" d="M295.333 200.667C295.278 200.722 295.222 201.778 295.667 201.333C295.722 201.278 295.778 200.222 295.333 200.667z"/>
<path style="fill:#e99e67; stroke:none;" d="M271 204C278.119 206.987 285.864 203.909 293 203L292 209C293.874 206.484 294.535 204.097 295 201C286.696 202.078 279.504 204 271 204z"/>
<path style="fill:#d9a381; stroke:none;" d="M268 202C272.884 205.337 280.278 204 286 204C280.862 201.844 273.62 202.71 268 202z"/>
<path style="fill:#9cb561; stroke:none;" d="M345 202L346 208C346.736 205.567 346.305 204.181 345 202z"/>
<path style="fill:#9eba65; stroke:none;" d="M401 202L402 206C402.393 204.076 402.146 203.64 401 202z"/>
<path style="fill:#e2a378; stroke:none;" d="M128 205C126.817 207.328 125.777 209.511 125 212C127.256 209.853 128.728 208.133 128 205z"/>
<path style="fill:#9cbb54; stroke:none;" d="M388 209C385.467 212.311 382.473 214.702 379 217C383.81 217.984 388.209 213.11 390 209L388 209z"/>
<path style="fill:#9fb56a; stroke:none;" d="M405 210L406 214C406.393 212.076 406.146 211.64 405 210z"/>
<path style="fill:#e79b69; stroke:none;" d="M124 212L122 219C125.003 220.126 127.803 220.739 131 221C128.689 219.607 126.691 219.235 124 219C124.467 216.415 124.888 214.46 124 212z"/>
<path style="fill:#d4a589; stroke:none;" d="M290 212L290 215C290.696 213.446 290.696 213.554 290 212z"/>
<path style="fill:#9cbd52; stroke:none;" d="M350 213C352.102 217.379 355.213 220.032 360 221C357.106 217.831 353.582 215.36 350 213z"/>
<path style="fill:#a0be5c; stroke:none;" d="M302 214L301 220C302.654 217.823 302.994 216.575 302 214z"/>
<path style="fill:#9bbc53; stroke:none;" d="M362 222C367.442 224.283 375.505 222.947 379 218C372.875 219.702 368.544 221.995 362 222z"/>
<path style="fill:#99bc56; stroke:none;" d="M300 220L294 237C297.829 233.395 302.138 225.232 300 220z"/>
<path style="fill:#9bb26c; stroke:none;" d="M360 220C363.482 222.638 367.761 222 372 222C368.359 220.472 363.929 220.729 360 220z"/>
<path style="fill:#e7a06c; stroke:none;" d="M131 221C133.311 222.393 135.309 222.765 138 223C135.689 221.607 133.691 221.235 131 221z"/>
<path style="fill:#e1a175; stroke:none;" d="M138 223C141.078 224.88 144.442 225.52 148 226C144.999 223.544 141.825 223.167 138 223z"/>
<path style="fill:#dbaa8c; stroke:none;" d="M286.333 223.667C286.278 223.722 286.222 224.778 286.667 224.333C286.722 224.278 286.778 223.222 286.333 223.667z"/>
<path style="fill:#a1ba67; stroke:none;" d="M411 223L412 227C412.393 225.076 412.146 224.64 411 223z"/>
<path style="fill:#d39d79; stroke:none;" d="M149 226C150.248 226.685 150.548 226.749 152 227C150.752 226.315 150.452 226.251 149 226z"/>
<path style="fill:#a3ba82; stroke:none;" d="M297.333 227.667C297.278 227.722 297.222 228.778 297.667 228.333C297.722 228.278 297.778 227.222 297.333 227.667z"/>
<path style="fill:#efd09a; stroke:none;" d="M116 231L119 230C117.222 229.045 116.979 229.234 116 231z"/>
<path style="fill:#e39f70; stroke:none;" d="M159 229C161.588 230.378 164.08 230.761 167 231C164.397 229.439 162.022 229.138 159 229z"/>
<path style="fill:#f8d466; stroke:none;" d="M115 236C119.094 233.435 121.034 232.666 126 233L126 231C120.261 230.279 116.721 229.622 115 236z"/>
<path style="fill:#df9a70; stroke:none;" d="M167 231C169.311 232.393 171.309 232.765 174 233L174 231L167 231z"/>
<path style="fill:#9bb365; stroke:none;" d="M415 231C415.397 233.301 415.957 234.904 417 237C417.444 234.417 416.631 233.043 415 231z"/>
<path style="fill:#ffd84f; stroke:none;" d="M100 281L97 281C95.6405 287.742 87.979 301.044 79.3302 295.977C77.4184 294.857 76.2376 292.753 75 291C73.0028 294.875 71.961 297.74 68 300L69 297C65.4024 294.668 66.0031 290.987 66 287L64 287C64 290.65 62.9981 296.144 64.858 299.427C67.2297 303.614 79.6115 303.874 84 304C83.2176 302.416 82.1301 301.4 81 300C85.6156 300.588 90.4453 301.911 95 303C94.428 305.377 94.1095 307.558 94 310L92 310L92 305L90 305C89.1241 312.188 88 318.643 88 326L83 326C83.9902 319.349 86.8476 312.806 88 306L84 306L84 310C81.2719 307.666 79.6606 306.288 76 306C87.2545 316.568 76.1187 329.816 72.1929 341C70.2248 346.607 69.3817 354.743 64 358C62.8096 372.457 50.5011 384.423 49 399C54.7867 398.616 60.4233 396.211 66 394.689C81.5013 390.459 95.8866 384.412 111 379C110.002 375.288 107.421 372.547 105.98 368.999C102.341 360.045 100.679 349.233 104.268 340.039C111.249 322.155 133.523 317.328 146.946 331.04C155.332 339.607 157 351.586 157 363C163.176 362.982 167.23 360.82 173 359.171C185.065 355.721 196.905 351.71 209 348.375C216.776 346.231 228.777 346.234 235.298 340.991C239.857 337.324 241.571 327.304 243.456 322C248.608 307.504 258.61 293.817 260 278L263 278C263.208 274.8 264.275 272.082 265 269C258.791 266.783 252.493 266.095 246.17 264.544C235.741 261.986 225.655 258.804 215 257C215 272.264 210.165 292.01 193 296.505C187.878 297.846 183.066 295.322 178 295L178 292C166.929 288.884 161.846 272.266 165.877 262.17C167.341 258.5 174.072 249.318 171.716 245.603C170.447 243.602 167.013 243.999 165 243.711C160.496 243.066 155.644 241.595 151.285 240.29C143.884 238.074 136.525 235.384 129 233.666C126.21 233.029 122.074 231.732 119.264 232.678C115.067 234.091 114.452 240.388 112.85 243.829C107.405 255.529 101.053 267.786 100 281z"/>
<path style="fill:#f2d87b; stroke:none;" d="M126 232C131.087 235.63 137.839 236.979 144 237C138.798 234.214 131.842 232.787 126 232z"/>
<path style="fill:#d4a78a; stroke:none;" d="M282.333 234.667C282.278 234.722 282.222 235.778 282.667 235.333C282.722 235.278 282.778 234.222 282.333 234.667z"/>
<path style="fill:#e19e71; stroke:none;" d="M180 235C181.904 236.884 183.534 237.953 186 239C184.094 236.677 182.892 235.806 180 235z"/>
<path style="fill:#f3d96b; stroke:none;" d="M114 236C113.105 239.382 112.18 242.489 112 246C113.933 242.923 115.245 239.51 114 236z"/>
<path style="fill:#f0d79e; stroke:none;" d="M144 237C145.248 237.685 145.548 237.749 147 238C145.752 237.315 145.452 237.251 144 237z"/>
<path style="fill:#e2a276; stroke:none;" d="M281 237C279.818 239.43 279.27 241.313 279 244C280.529 241.682 281.485 239.745 281 237z"/>
<path style="fill:#f6d56a; stroke:none;" d="M144 238C147.768 239.756 151.83 240.877 156 241C152.354 238.287 148.445 238.037 144 238z"/>
<path style="fill:#98bc50; stroke:none;" d="M293 238C289.98 249.064 282.587 260.561 282 272L291 272C287.876 270.539 285.744 270.17 284 267C285.797 267 285.521 266.986 287 266C286.543 257.046 296.222 246.338 293 238z"/>
<path style="fill:#e9d893; stroke:none;" d="M156.667 240.333C156.222 240.778 157.278 240.722 157.333 240.667C157.778 240.222 156.722 240.278 156.667 240.333z"/>
<path style="fill:#d9a689; stroke:none;" d="M187.333 240.667C187.278 240.722 187.222 241.778 187.667 241.333C187.722 241.278 187.778 240.222 187.333 240.667z"/>
<path style="fill:#f1d594; stroke:none;" d="M158 241C159.506 241.683 160.315 241.826 162 242C160.494 241.317 159.685 241.174 158 241z"/>
<path style="fill:#f5d371; stroke:none;" d="M158 242C160.561 243.232 163.178 243.635 166 244C163.44 242.058 161.192 242.035 158 242z"/>
<path style="fill:#e79e69; stroke:none;" d="M188 242L186 254C188.791 250.49 189.762 246.208 188 242z"/>
<path style="fill:#dfa276; stroke:none;" d="M201 245C204.077 243.695 206.66 243.097 210 243C206.475 241.525 203.144 241.693 201 245z"/>
<path style="fill:#e9d893; stroke:none;" d="M111 243L111 246C111.696 244.446 111.696 244.554 111 243z"/>
<path style="fill:#ebd59b; stroke:none;" d="M166 243C167.248 243.685 167.548 243.749 169 244C167.752 243.315 167.452 243.251 166 243z"/>
<path style="fill:#db9c73; stroke:none;" d="M210 243C211.724 244.055 211.921 244.036 214 244C212.494 243.317 211.685 243.174 210 243z"/>
<path style="fill:#dba57f; stroke:none;" d="M216 244C217.506 244.683 218.315 244.826 220 245C218.494 244.317 217.685 244.174 216 244z"/>
<path style="fill:#d5a68a; stroke:none;" d="M278.333 244.667C278.278 244.722 278.222 245.778 278.667 245.333C278.722 245.278 278.778 244.222 278.333 244.667z"/>
<path style="fill:#efd78f; stroke:none;" d="M172 245L172 250C173.914 248.394 174.837 247.217 176 245L172 245z"/>
<path style="fill:#e99d6c; stroke:none;" d="M200 245C197.916 252.05 199.443 259.727 198.946 267C198.689 270.76 197.24 274.223 197 278C201.14 271.014 200.795 260.93 200.59 253C200.517 250.146 201.044 247.668 200 245z"/>
<path style="fill:#dea071; stroke:none;" d="M220 245C225.257 247.531 232.179 248.746 238 249L238 247C231.864 246.949 226.136 245.051 220 245z"/>
<path style="fill:#f1d884; stroke:none;" d="M110 246L109 250C110.303 248.332 110.553 248.008 110 246z"/>
<path style="fill:#e69e6c; stroke:none;" d="M277 246C275.67 248.707 274.364 252.329 271.66 253.971C267.512 256.491 259.754 253.016 255 253C260.269 255.822 267.172 256.667 273 258C275.093 254.414 278.153 250.204 277 246z"/>
<path style="fill:#e99f70; stroke:none;" d="M238 249C240.283 250.222 242.428 250.652 245 251C242.692 249.241 240.908 249.083 238 249z"/>
<path style="fill:#ebd389; stroke:none;" d="M171.333 250.667C171.278 250.722 171.222 251.778 171.667 251.333C171.722 251.278 171.778 250.222 171.333 250.667z"/>
<path style="fill:#e5a47a; stroke:none;" d="M246 251C248.862 252.376 251.838 252.749 255 253C252.111 251.269 249.339 251.071 246 251z"/>
<path style="fill:#f3d694; stroke:none;" d="M170 252C169.014 253.479 169 253.203 169 255C170.289 253.557 170.401 253.766 170 252z"/>
<path style="fill:#9cb66c; stroke:none;" d="M425 252C421.702 253.117 418.472 253.724 415 254C417.069 255.192 426.362 255.3 425 252z"/>
<path style="fill:#efd682; stroke:none;" d="M107 253L106 258C107.318 256.074 107.651 255.234 107 253z"/>
<path style="fill:#f6c9aa; stroke:none;" d="M185 253L186 254L185 253z"/>
<path style="fill:#e6d399; stroke:none;" d="M168.333 255.667C168.278 255.722 168.222 256.778 168.667 256.333C168.722 256.278 168.778 255.222 168.333 255.667z"/>
<path style="fill:#e8d8b6; stroke:none;" d="M213.667 255.333C213.222 255.778 214.278 255.722 214.333 255.667C214.778 255.222 213.722 255.278 213.667 255.333z"/>
<path style="fill:#ead38d; stroke:none;" d="M213 256L213 269C214.551 265.303 214 260.983 214 257L224 258C220.539 256.337 216.815 256.079 213 256z"/>
<path style="fill:#f5d87a; stroke:none;" d="M214 257C214 264.201 212.024 270.868 212 278C214.566 272.105 216.574 263.135 214 257z"/>
<path style="fill:#fad67e; stroke:none;" d="M220 258C222.613 259.098 225.164 258.993 228 259C225.387 257.902 222.835 258.007 220 258z"/>
<path style="fill:#9eb56f; stroke:none;" d="M386 258C388.332 258.985 390.457 258.981 393 259C390.668 258.015 388.543 258.019 386 258z"/>
<path style="fill:#dba284; stroke:none;" d="M200 259L200 269C201.346 265.793 201.346 262.207 200 259z"/>
<path style="fill:#f2d695; stroke:none;" d="M228 259C229.506 259.683 230.315 259.826 232 260C230.494 259.317 229.685 259.174 228 259z"/>
<path style="fill:#9bb47a; stroke:none;" d="M285 259L285 262C285.696 260.446 285.696 260.554 285 259z"/>
<path style="fill:#fdd772; stroke:none;" d="M104 260L101 270C104 267.14 105.628 264.031 104 260z"/>
<path style="fill:#feda7c; stroke:none;" d="M166 260C165.19 262.729 165.021 265.15 165 268C166.278 265.339 166.871 262.835 166 260z"/>
<path style="fill:#edd686; stroke:none;" d="M232 260C233.769 260.779 235.036 260.912 237 261C235.231 260.221 233.964 260.088 232 260z"/>
<path style="fill:#9eb571; stroke:none;" d="M373 261C375.34 261.566 377.571 261.176 380 261C377.413 259.935 375.679 260.219 373 261z"/>
<path style="fill:#ecd299; stroke:none;" d="M238 261C239.248 261.685 239.548 261.749 241 262C239.752 261.315 239.452 261.251 238 261z"/>
<path style="fill:#e79d6e; stroke:none;" d="M179 262C177.627 268.66 175.671 278.22 184.015 281.397C187.018 282.54 190.842 282 194 282C191.143 280.801 187.812 281.443 185.043 279.972C177.051 275.727 181.277 268.35 179 262z"/>
<path style="fill:#f2d47a; stroke:none;" d="M239 262C243.937 264.593 248.496 264.999 254 265C249.527 263.066 243.886 262.114 239 262z"/>
<path style="fill:#edd5a7; stroke:none;" d="M247.667 263.333C247.222 263.778 248.278 263.722 248.333 263.667C248.778 263.222 247.722 263.278 247.667 263.333z"/>
<path style="fill:#a1b673; stroke:none;" d="M336 264C338.052 264.874 339.747 264.953 342 265C339.948 264.126 338.253 264.047 336 264z"/>
<path style="fill:#9fb175; stroke:none;" d="M370 264C369.455 265.635 369.635 265.455 368 266C370.034 266.785 370.785 266.033 370 264z"/>
<path style="fill:#f7d397; stroke:none;" d="M254 265C255.506 265.683 256.315 265.826 258 266C256.494 265.317 255.685 265.174 254 265z"/>
<path style="fill:#a0b278; stroke:none;" d="M321 266C325.664 267.953 331.058 266.102 336 266C331.569 264.141 325.542 264.657 321 266z"/>
<path style="fill:#206faa; stroke:none;" d="M417 266C420.5 267.469 424.427 266.493 427.957 268.009C432.182 269.824 433.826 274.283 436 278C436.335 276.09 436.073 274.876 435.367 272.981C431.663 263.035 425.91 265.975 417 266z"/>
<path style="fill:#f7d66d; stroke:none;" d="M254 266C256.613 267.098 259.164 266.993 262 267C259.387 265.902 256.835 266.007 254 266z"/>
<path style="fill:#99bd59; stroke:none;" d="M344 266C346.119 268.393 349.485 270.159 350.958 273.054C352.58 276.245 351.147 280.58 351 284L353 284C353 275.723 353.58 268.381 344 266z"/>
<path style="fill:#ead2ae; stroke:none;" d="M262 267C263.769 267.779 265.036 267.912 267 268C265.231 267.221 263.964 267.088 262 267z"/>
<path style="fill:#2370a6; stroke:none;" d="M398 269C403.119 270.836 410.621 268.68 416 268C410.682 265.774 403.515 267.973 398 269z"/>
<path style="fill:#0e76bd; stroke:none;" d="M388 270L388 273L383 273C386.066 283.642 392.872 292.464 393 304L390 304C389.273 308.016 387.631 310.867 384.985 313.995C371.603 329.814 349.679 323.607 339 308L334 310C333.337 305.125 330.656 295.871 326 294L326 310L324 310C323.978 303.465 321.392 298.24 320 292L305 292C304.941 294.819 305.146 297.539 302 298C302.661 299.396 302.964 299.814 304 301C302.487 302.653 301.819 303.894 301 306L298 296L295 297L296 291C293.64 290.52 292.337 290.481 290 291C290.057 293.975 289.325 297.052 289.784 300C290.398 303.948 292.815 307.375 294.34 311C298.054 319.83 301.672 329.006 305.9 337.576C309.826 345.531 315.21 354.004 316 363L319 363C320.482 374.321 329.687 373.475 339 372.957C342.436 372.765 345.593 371.421 349 371.104C358.514 370.22 368.445 371 378 371C382.824 371 389.418 369.854 393.981 371.603C406.339 376.341 402.79 394.413 400.546 403.831C399.415 408.581 399.085 415.993 404.147 418.972C411.397 423.238 422.638 416.79 423.856 408.91C425.632 397.411 412.282 388.655 415.318 377.04C417.599 368.314 427.203 369.41 434 368.946C437.428 368.712 440.572 367.288 444 367.054C455.228 366.287 466.744 367 478 367C476.7 360.325 473.338 356.77 470.1 350.999C467.993 347.244 467.192 343.663 463 342C463.48 339.64 463.519 338.337 463 336L460 339L460 332L456 333C456.684 331.42 456.805 331.223 458 330L457 328L459 328C457.912 325.003 457.05 323.948 454 323C454.727 317.464 451.681 313.699 450.005 308.575C446.493 297.842 443.655 286.973 436.823 277.576C434.23 274.01 432.455 269.149 427.957 267.653C422.064 265.693 415.835 267.859 410 268.7C402.719 269.749 395.347 270 388 270z"/>
<path style="fill:#f4d499; stroke:none;" d="M164 268L164 272C164.71 270.24 164.71 269.76 164 268z"/>
<path style="fill:#f7d46e; stroke:none;" d="M262 268C263.248 268.685 263.548 268.749 265 269C263.891 272.104 263.098 274.677 263 278C265.256 275.02 266.58 271.46 268 268L262 268z"/>
<path style="fill:#9fb666; stroke:none;" d="M306 268C308.613 269.098 311.165 268.993 314 269C311.387 267.902 308.836 268.007 306 268z"/>
<path style="fill:#fdd961; stroke:none;" d="M102 269C98.9441 272.527 98.8322 276.533 98 281C100.939 278.624 102.469 272.684 102 269z"/>
<path style="fill:#9eb668; stroke:none;" d="M291 270C295.56 271.896 301.123 270.04 306 270C301.462 268.096 295.704 268.88 291 270z"/>
<path style="fill:#396a93; stroke:none;" d="M394 269C395.506 269.683 396.315 269.826 398 270C396.494 269.317 395.685 269.174 394 269z"/>
<path style="fill:#a1ac8a; stroke:none;" d="M281 270C279.814 271.186 279.472 271.584 279 273L283 273C282.309 271.611 282.016 271.139 281 270z"/>
<path style="fill:#236daa; stroke:none;" d="M379 272C383.416 279.932 388.637 286.77 390 296C393.075 288.457 385.806 279.738 383 273L388 273L388 271C384.878 271.026 382.04 271.276 379 272z"/>
<path style="fill:#eed980; stroke:none;" d="M165 272C165.026 275.122 165.276 277.961 166 281C166.928 277.983 166.287 274.867 165 272z"/>
<path style="fill:#d3a38d; stroke:none;" d="M198.333 274.667C198.278 274.722 198.222 275.778 198.667 275.333C198.722 275.278 198.778 274.222 198.333 274.667z"/>
<path style="fill:#e5d991; stroke:none;" d="M56 275C57.769 275.779 59.0359 275.912 61 276C59.2309 275.221 57.9641 275.088 56 275z"/>
<path style="fill:#efd47d; stroke:none;" d="M98 275L96 282C98.1343 279.725 99.0423 278.023 98 275z"/>
<path style="fill:#ecd899; stroke:none;" d="M211 275L211 278C211.696 276.446 211.696 276.554 211 275z"/>
<path style="fill:#f9d864; stroke:none;" d="M45 283C50.6782 281.224 54.9233 277.333 61 277C55.4743 274.687 47.7472 277.735 45 283z"/>
<path style="fill:#f1d68f; stroke:none;" d="M61 276C62.6864 277.656 63.7463 278.251 66 279C64.3135 277.344 63.2537 276.749 61 276z"/>
<path style="fill:#276ea2; stroke:none;" d="M337 276C332.172 277.467 327.046 277.958 322 278C325.959 279.661 330.737 279 335 279L334 294C336.128 289.572 338.428 280.702 337 276z"/>
<path style="fill:#f0d993; stroke:none;" d="M50 277L50 279C51.6351 278.455 51.4549 278.635 52 277L50 277z"/>
<path style="fill:#fed74e; stroke:none;" d="M43 283C43 287.586 42.5369 292.449 43.1335 297C44.3413 306.213 54.7946 310.29 62.9853 308.518C66.5194 307.753 69.2943 305.145 73.0147 305.228C77.6469 305.332 80.2962 307.814 84 310L84 306L88 306C86.3242 312.334 83.4806 319.598 83 326L88 326C88 318.721 89.5475 312.118 90 305L92 305L92 310L94 310L95 303C90.6137 301.688 85.5716 300.304 81 300C81.7825 301.584 82.8699 302.6 84 304C79.5762 303.719 68.0653 303.263 65.3179 299.427C63.0254 296.227 64 290.721 64 287L66 287C66 290.767 64.5872 296.054 69 297C68.0143 298.478 68 298.203 68 300C79.6493 295.645 72.2717 282.029 63.9853 278.367C55.9911 274.835 50.4774 281.37 43 283z"/>
<path style="fill:#dca27d; stroke:none;" d="M194 281C195.457 279.897 195.897 279.457 197 278C194.876 278.899 194.899 278.876 194 281z"/>
<path style="fill:#ead592; stroke:none;" d="M210 278L208 284C209.915 281.968 210.744 280.735 210 278z"/>
<path style="fill:#f5d463; stroke:none;" d="M260 278L257 290C260.167 287.008 262.159 282.237 263 278L260 278z"/>
<path style="fill:#ecd7a0; stroke:none;" d="M66 279C67.1394 280.015 67.6116 280.309 69 281C68.0198 279.217 68.0924 279.406 66 279z"/>
<path style="fill:#246da0; stroke:none;" d="M281 284L282 288C282.685 286.752 282.749 286.452 283 285C296.1 284.964 308.823 281 322 281L322 279C308.579 279.111 294.192 281.549 281 284z"/>
<path style="fill:#0f75bd; stroke:none;" d="M283 285C283.651 289.676 285.7 292.957 288 297L290 297C290.363 294.768 290.363 293.232 290 291C292.121 290.754 293.874 290.769 296 291L295 297C296.797 297 296.522 296.986 298 296C298.81 299.446 299.895 302.401 300 306L304 301L302 298C305.297 297.586 304.95 295.078 305 292L320 292C320.825 298.237 323.929 303.568 324 310L326 310L326 294C330.383 296.688 332.825 304.997 334 310C335.887 309.499 337.698 309.072 338.112 306.827C338.967 302.183 335.352 296.368 334.495 291.83C333.734 287.805 334.989 283.127 335 279C317.517 279 300.458 284.854 283 285z"/>
<path style="fill:#a4bf6e; stroke:none;" d="M369 280C369.684 281.58 369.805 281.777 371 283C370.316 281.42 370.195 281.223 369 280z"/>
<path style="fill:#f4d072; stroke:none;" d="M69 281C70.1036 283.357 70.9564 284.376 73 286C71.8964 283.643 71.0436 282.624 69 281z"/>
<path style="fill:#f7d662; stroke:none;" d="M95 282C92.845 287.477 89.7583 293.978 84 296C90.5738 298.259 95.9262 287.325 97 282L95 282z"/>
<path style="fill:#daa67f; stroke:none;" d="M185 282C187.332 282.985 189.457 282.981 192 283C189.668 282.015 187.543 282.019 185 282z"/>
<path style="fill:#f8d67c; stroke:none;" d="M168 283C168.684 284.58 168.805 284.777 170 286C169.316 284.42 169.195 284.223 168 283z"/>
<path style="fill:#eedba3; stroke:none;" d="M260.333 283.667C260.278 283.722 260.222 284.778 260.667 284.333C260.722 284.278 260.778 283.222 260.333 283.667z"/>
<path style="fill:#99b463; stroke:none;" d="M371 283C371.684 284.58 371.805 284.777 373 286C372.316 284.42 372.195 284.223 371 283z"/>
<path style="fill:#f5d46d; stroke:none;" d="M207 284C201.263 292.121 193.779 295.992 184 296C193.525 299.997 204.998 292.58 209 284L207 284z"/>
<path style="fill:#a0bc65; stroke:none;" d="M350 284C349.014 285.478 349 285.203 349 287C350.289 285.557 350.401 285.766 350 284z"/>
<path style="fill:#edd978; stroke:none;" d="M42 286C42 294.998 40.7531 304.487 51 308C48.8479 304.806 45.3691 302.712 43.858 298.999C42.1546 294.814 43.7387 290.144 42 286z"/>
<path style="fill:#f0d795; stroke:none;" d="M74 286C74.0941 288.205 74.3562 289.894 75 292C75.5515 289.641 75.1377 288.146 74 286z"/>
<path style="fill:#fcda81; stroke:none;" d="M170 286C171.653 289.436 173.322 290.959 177 292C174.843 289.688 172.605 287.79 170 286z"/>
<path style="fill:#e6d295; stroke:none;" d="M91 287L91 289C92.6351 288.455 92.455 288.635 93 287L91 287z"/>
<path style="fill:#9cb65f; stroke:none;" d="M348 287C348 291.761 347.892 296.345 349 301C350.168 297.201 349.543 290.678 348 287z"/>
<path style="fill:#eed593; stroke:none;" d="M41 288L41 296C42.1614 293.23 42.1614 290.77 41 288z"/>
<path style="fill:#ead39f; stroke:none;" d="M258.333 288.667C258.278 288.722 258.222 289.778 258.667 289.333C258.722 289.278 258.778 288.222 258.333 288.667z"/>
<path style="fill:#3c6895; stroke:none;" d="M283.333 288.667C283.278 288.722 283.222 289.778 283.667 289.333C283.722 289.278 283.778 288.222 283.333 288.667z"/>
<path style="fill:#9eaf7b; stroke:none;" d="M347 289L347 293C347.71 291.24 347.71 290.76 347 289z"/>
<path style="fill:#f4d386; stroke:none;" d="M257 290C255.988 292.373 255.378 294.449 255 297C256.707 294.706 257.589 292.826 257 290z"/>
<path style="fill:#f1d87e; stroke:none;" d="M76 292C78.2703 297.418 81.791 296.964 87 296C82.8518 294.49 79.8988 294.77 76 292z"/>
<path style="fill:#236fad; stroke:none;" d="M285 292C285.703 295.946 287.47 299.319 289 303C290.417 298.869 287.817 294.99 285 292z"/>
<path style="fill:#efd682; stroke:none;" d="M87 295C88.58 294.316 88.7773 294.195 90 293C88.42 293.684 88.2228 293.805 87 295z"/>
<path style="fill:#efd781; stroke:none;" d="M178 293C179.855 295.209 182.19 295.441 185 296C182.794 294.183 180.802 293.606 178 293z"/>
<path style="fill:#9cb965; stroke:none;" d="M377 293C376.998 295.592 377.279 298.463 376.566 300.985C374.104 309.699 364.865 308.542 358 308C368.753 314.441 382.207 305.409 377 293z"/>
<path style="fill:#ecd796; stroke:none;" d="M185 295C187.89 296.213 190.874 295.998 194 296C191.11 294.787 188.126 295.002 185 295z"/>
<path style="fill:#366994; stroke:none;" d="M391 296L391 304C392.161 301.23 392.161 298.77 391 296z"/>
<path style="fill:#1f70af; stroke:none;" d="M392 296L392 304C393.161 301.23 393.161 298.77 392 296z"/>
<path style="fill:#efd47b; stroke:none;" d="M254 297L253 302C254.318 300.074 254.651 299.234 254 297z"/>
<path style="fill:#9baf7c; stroke:none;" d="M378 297L378 301C378.71 299.24 378.71 298.759 378 297z"/>
<path style="fill:#9bb763; stroke:none;" d="M350 301C351.82 304.724 354.154 306.506 358 308C355.984 304.873 353.233 302.819 350 301z"/>
<path style="fill:#eafbd1; stroke:none;" d="M378.333 301.667C378.278 301.722 378.222 302.778 378.667 302.333C378.722 302.278 378.778 301.222 378.333 301.667z"/>
<path style="fill:#eed789; stroke:none;" d="M252 302C250.988 304.373 250.378 306.449 250 309C251.707 306.706 252.589 304.826 252 302z"/>
<path style="fill:#216ca6; stroke:none;" d="M290 303C291.249 310.008 295.28 316.458 298 323C299.518 317.464 293.716 307.112 290 303z"/>
<path style="fill:#1574b4; stroke:none;" d="M449 303C449.213 310.207 454.112 315.942 454 323C456.597 324.33 457.591 325.436 459 328C457.463 328.69 457.662 328.328 458 330C456.217 330.98 456.406 330.908 456 333L460 332L460 339C461.73 338.119 461.889 337.742 463 336C463.246 338.121 463.231 339.874 463 342C468.868 345.553 469.725 353.508 475 358C472.237 348.408 466.162 339.752 461.907 330.83C457.644 321.89 455.43 310.79 449 303z"/>
<path style="fill:#daebb5; stroke:none;" d="M377 304L378 305L377 304z"/>
<path style="fill:#f8d764; stroke:none;" d="M67 308C70.0824 307.275 72.8003 306.208 76 306C72.4166 304.499 69.3127 304.793 67 308z"/>
<path style="fill:#f4d199; stroke:none;" d="M70 306C72.0521 306.874 73.7472 306.953 76 307C73.9479 306.126 72.2528 306.047 70 306z"/>
<path style="fill:#e6d59f; stroke:none;" d="M77.3333 307.667C77.2778 307.722 77.2222 308.778 77.6667 308.333C77.7223 308.278 77.7778 307.222 77.3333 307.667z"/>
<path style="fill:#f7d66b; stroke:none;" d="M78 307C78.6749 310.287 80.1251 313.545 79.8526 316.961C79.3386 323.405 75.4876 329.723 74 336C80.4759 329.975 84.1526 314.133 78 307z"/>
<path style="fill:#5c6d39; stroke:none;" d="M374 307L375 308L374 307z"/>
<path style="fill:#e9d495; stroke:none;" d="M51 308C52.2483 308.685 52.5485 308.749 54 309C52.7516 308.315 52.4517 308.251 51 308z"/>
<path style="fill:#e8d3a6; stroke:none;" d="M63 308C64.5061 308.683 65.3148 308.826 67 309C65.4939 308.317 64.6852 308.174 63 308z"/>
<path style="fill:#2271a9; stroke:none;" d="M339 308C340.299 310.763 341.553 312.164 344 314C342.7 311.237 341.447 309.836 339 308z"/>
<path style="fill:#526337; stroke:none;" d="M373 308L374 309L373 308z"/>
<path style="fill:#f5da6f; stroke:none;" d="M54 309C56.8897 310.213 59.8741 309.998 63 310C60.1103 308.787 57.1259 309.002 54 309z"/>
<path style="fill:#e2d48d; stroke:none;" d="M56 310C57.5061 310.683 58.3148 310.826 60 311C58.4939 310.317 57.6852 310.174 56 310z"/>
<path style="fill:#efd990; stroke:none;" d="M249.333 310.667C249.278 310.722 249.222 311.778 249.667 311.333C249.722 311.278 249.778 310.222 249.333 310.667z"/>
<path style="fill:#edd79d; stroke:none;" d="M248.333 312.667C248.278 312.722 248.222 313.778 248.667 313.333C248.722 313.278 248.778 312.222 248.333 312.667z"/>
<path style="fill:#f4d994; stroke:none;" d="M247.333 314.667C247.278 314.722 247.222 315.778 247.667 315.333C247.722 315.278 247.778 314.222 247.333 314.667z"/>
<path style="fill:#2b6ea2; stroke:none;" d="M344 314C348.574 322.14 358.626 323.003 367 323C371.405 322.998 374.803 323.265 378 320C370.473 321.721 363.515 323.068 356 320.289C351.733 318.712 348.092 315.935 344 314z"/>
<path style="fill:#eccd96; stroke:none;" d="M79 316L79 321C79.8299 318.969 79.8299 318.03 79 316z"/>
<path style="fill:#f9d372; stroke:none;" d="M246 316C243.951 319.372 243.116 322.059 243 326C245.012 323.004 246.984 319.587 246 316z"/>
<path style="fill:#2e6e9c; stroke:none;" d="M378 319C379.809 319.574 380.069 319.465 382 319C380.341 318.594 379.758 318.691 378 319z"/>
<path style="fill:#f3d47a; stroke:none;" d="M119 324C123.615 325.42 130.051 324 135 324C130.371 322.058 123.747 322.597 119 324z"/>
<path style="fill:#2770a7; stroke:none;" d="M299 323L300 328C300.779 326.231 300.912 324.964 301 323L299 323z"/>
<path style="fill:#efd58b; stroke:none;" d="M135 324C136.248 324.685 136.548 324.749 138 325C136.752 324.315 136.452 324.251 135 324z"/>
<path style="fill:#efd984; stroke:none;" d="M114 328L119 326C116.388 325.127 115.453 325.724 114 328z"/>
<path style="fill:#f3dc7f; stroke:none;" d="M138 325C139.458 326.081 140.248 326.436 142 327C140.457 325.733 139.952 325.511 138 325z"/>
<path style="fill:#f6d77c; stroke:none;" d="M242 326C241.438 327.801 241.176 329.122 241 331C242.133 329.101 242.473 328.143 242 326z"/>
<path style="fill:#fbd374; stroke:none;" d="M142 327C144.414 330.441 147.468 333.389 149.651 337C154.785 345.493 156 354.279 156 364L163 364C160.948 363.126 159.253 363.047 157 363C157 350.152 155.243 333.181 142 327z"/>
<path style="fill:#266ba2; stroke:none;" d="M301 328L304 337C305.412 333.26 303.749 330.621 301 328z"/>
<path style="fill:#f4d38c; stroke:none;" d="M107 336C109.312 333.843 111.21 331.605 113 329C109.564 330.653 108.041 332.322 107 336z"/>
<path style="fill:#30709c; stroke:none;" d="M461 329L462 333C462.393 331.076 462.146 330.64 461 329z"/>
<path style="fill:#f0d67f; stroke:none;" d="M240 331C238.439 333.974 237.497 336.677 237 340C239.013 337.337 240.586 334.342 240 331z"/>
<path style="fill:#f9d86f; stroke:none;" d="M72 336C70.6963 343.695 66.7846 350.469 65 358C70.5899 353.884 72.1301 342.464 74 336L72 336z"/>
<path style="fill:#f1d77a; stroke:none;" d="M105 336L105 339C106.015 337.861 106.309 337.388 107 336L105 336z"/>
<path style="fill:#bc6061; stroke:none;" d="M124 336C126.89 337.213 129.874 336.998 133 337C130.11 335.787 127.126 336.002 124 336z"/>
<path style="fill:#c55b65; stroke:none;" d="M118 364C119.885 359.16 116.546 354.13 117.193 349C117.805 344.148 121.338 340.84 124 337C112.644 342.344 114.846 354.138 118 364z"/>
<path style="fill:#da525e; stroke:none;" d="M116 393C96.8177 394.912 77.1018 405.201 59 411.457C53.4028 413.391 42.8652 414.035 38.8573 418.652C37.1365 420.634 36.9554 423.592 36.1798 426C34.4027 431.517 32.37 437.181 32 443L29 443C27.8157 451.71 21.9511 459.513 18.2639 467.285C16.3451 471.33 16.2235 475.89 14.1242 479.985C11.0988 485.888 7.60403 490.125 7 497L120 497C137.026 497 158.185 500.426 174 494C174.479 490.208 174.538 485.916 175.728 482.285C177.355 477.325 180.459 473.053 181.981 468C183.065 464.406 183.131 460.648 184 457C179.384 455.85 176.47 457.952 172 458.737C165.605 459.859 158.518 457.813 153.255 454.066C136.991 442.486 146.16 419.076 163 414.761C171.012 412.708 179.529 415.808 184.699 422.326C186.783 424.953 188.897 433.364 192.894 433.364C195.174 433.364 196.152 430.739 196.78 428.981C198.436 424.344 199.412 419.372 201.961 415.09C205.292 409.495 207.381 403.737 210.438 398.129C211.704 395.806 213.842 394.141 215.204 391.871C219.756 384.281 223.087 375.393 226.064 367.09C227.582 362.855 229.596 359.591 230 355C213.234 360.414 196.548 365.579 180 371.255C172.459 373.841 163.045 378.278 155 376.528C150.756 375.604 142.956 373.207 141.083 368.796C139.891 365.987 143.454 361.9 143.745 359C144.717 349.329 136.075 331.798 124 337.889C115.024 342.417 115.309 358.14 119.889 365.806C122.639 370.408 127.946 371.632 127.917 378C127.901 381.401 126.932 386.032 123.843 387.94C120.556 389.969 117.236 388.776 116 393z"/>
<path style="fill:#b26b71; stroke:none;" d="M133.667 337.333C133.222 337.778 134.278 337.722 134.333 337.667C134.778 337.222 133.722 337.278 133.667 337.333z"/>
<path style="fill:#bc6365; stroke:none;" d="M135 338C136.299 340.763 137.553 342.164 140 344C138.701 341.237 137.447 339.836 135 338z"/>
<path style="fill:#276fa1; stroke:none;" d="M305 338L315 361C316.672 355.33 309.983 340.899 305 338z"/>
<path style="fill:#f4d578; stroke:none;" d="M104 339C103.352 341.709 103.058 344.216 103 347C104.278 344.339 104.871 341.835 104 339z"/>
<path style="fill:#f1d2a3; stroke:none;" d="M236.333 340.667C236.278 340.722 236.222 341.778 236.667 341.333C236.722 341.278 236.778 340.222 236.333 340.667z"/>
<path style="fill:#ecd18c; stroke:none;" d="M229 343C231.34 343.566 233.571 343.176 236 343C233.413 341.935 231.679 342.219 229 343z"/>
<path style="fill:#e8d59a; stroke:none;" d="M69 343L69 347C69.7102 345.241 69.7102 344.759 69 343z"/>
<path style="fill:#ebdaa6; stroke:none;" d="M153.333 343.667C153.278 343.722 153.222 344.778 153.667 344.333C153.722 344.278 153.778 343.222 153.333 343.667z"/>
<path style="fill:#2c6493; stroke:none;" d="M468 343L469 347C469.393 345.076 469.146 344.64 468 343z"/>
<path style="fill:#e8d390; stroke:none;" d="M224 344C225.506 344.683 226.315 344.826 228 345C226.494 344.317 225.685 344.174 224 344z"/>
<path style="fill:#fad473; stroke:none;" d="M204 350C208.637 351.408 214.593 348.687 219 347C214.454 345.961 208.142 347.995 204 350z"/>
<path style="fill:#ebd5a3; stroke:none;" d="M219.667 346.333C219.222 346.778 220.278 346.722 220.333 346.667C220.778 346.222 219.722 346.278 219.667 346.333z"/>
<path style="fill:#edd693; stroke:none;" d="M102 347L102 356C103.256 353.006 103.256 349.994 102 347z"/>
<path style="fill:#e1d4a0; stroke:none;" d="M155 351L155 355C155.71 353.24 155.71 352.759 155 351z"/>
<path style="fill:#f7d071; stroke:none;" d="M198 351C200.052 351.874 201.747 351.953 204 352C201.948 351.126 200.253 351.047 198 351z"/>
<path style="fill:#ead296; stroke:none;" d="M195 353C197.08 353.507 198.838 353.237 201 353C198.677 352.078 197.419 352.313 195 353z"/>
<path style="fill:#fbd572; stroke:none;" d="M190 353C191.769 353.779 193.036 353.912 195 354C193.231 353.221 191.964 353.088 190 353z"/>
<path style="fill:#f3cf93; stroke:none;" d="M190 354C191.506 354.683 192.315 354.826 194 355C192.494 354.317 191.685 354.174 190 354z"/>
<path style="fill:#f1d594; stroke:none;" d="M188.667 355.333C188.222 355.778 189.278 355.722 189.333 355.667C189.778 355.222 188.722 355.278 188.667 355.333z"/>
<path style="fill:#f7d476; stroke:none;" d="M103 356L103 361C103.83 358.969 103.83 358.03 103 356z"/>
<path style="fill:#eed698; stroke:none;" d="M184 356C185.248 356.685 185.548 356.749 187 357C185.752 356.315 185.452 356.251 184 356z"/>
<path style="fill:#efd67a; stroke:none;" d="M167 361C172.184 362.534 178.696 358.78 184 358C178.94 355.941 171.818 358.944 167 361z"/>
<path style="fill:#fcd971; stroke:none;" d="M63 360C61.3196 364.331 59.2769 368.533 58 373C61.5059 369.846 64.4461 364.777 63 360z"/>
<path style="fill:#eed291; stroke:none;" d="M104 361L104 364C104.696 362.446 104.696 362.554 104 361z"/>
<path style="fill:#e3d39f; stroke:none;" d="M165.667 362.333C165.222 362.778 166.278 362.722 166.333 362.667C166.778 362.222 165.722 362.278 165.667 362.333z"/>
<path style="fill:#316998; stroke:none;" d="M477 362L478 367L473 367C475.332 367.984 477.457 367.981 480 368C479.291 365.588 478.573 363.949 477 362z"/>
<path style="fill:#2a71a5; stroke:none;" d="M317 363C318.005 367.23 319.106 370.784 323 373C321.5 369.498 320.027 365.352 317 363z"/>
<path style="fill:#fbd56a; stroke:none;" d="M105 364C105.167 367.252 105.886 369.946 107 373C108.151 369.681 106.886 366.859 105 364z"/>
<path style="fill:#f5d693; stroke:none;" d="M156 366L160 365C157.954 364.249 157.404 364.344 156 366z"/>
<path style="fill:#a86366; stroke:none;" d="M226.333 364.667C226.278 364.722 226.222 365.778 226.667 365.333C226.722 365.278 226.778 364.222 226.333 364.667z"/>
<path style="fill:#b46060; stroke:none;" d="M140 366L140 370C140.71 368.241 140.71 367.759 140 366z"/>
<path style="fill:#c25d63; stroke:none;" d="M158 376C162.187 377.736 165.884 375.907 170 374.615C177.296 372.324 184.773 370.466 192 368C188.336 366.887 184.609 368.549 181 369.579C173.423 371.741 165.798 374.848 158 376z"/>
<path style="fill:#2070ab; stroke:none;" d="M421 369C428.591 372.185 437.397 369.026 445.039 368.129C454.13 367.061 463.846 368 473 368C468.531 366.125 462.809 367 458 367C445.45 367 433.509 369 421 369z"/>
<path style="fill:#346897; stroke:none;" d="M441 368C444.699 369.552 449.017 369 453 369L473 369C469.301 367.448 464.983 368 461 368L441 368z"/>
<path style="fill:#ecd383; stroke:none;" d="M108 371C108.526 373.543 108.878 374.535 111 376C110.142 374.038 109.366 372.631 108 371z"/>
<path style="fill:#1d71ad; stroke:none;" d="M345 371C348.959 372.661 353.74 372 358 372C368.462 372 381.853 369.753 391.995 372.318C395.388 373.176 397.25 376.15 400 378C396.803 369.948 390.546 371 383 371L345 371z"/>
<path style="fill:#356a96; stroke:none;" d="M323 373C329.843 375.872 339.783 373.857 347 373.17C357.18 372.201 367.775 373 378 373C373.031 370.915 366.35 372 361 372C348.283 372 335.72 373 323 373z"/>
<path style="fill:#ecd182; stroke:none;" d="M57 373L56 378C57.3182 376.074 57.6513 375.234 57 373z"/>
<path style="fill:#3a6182; stroke:none;" d="M321 373C322.223 374.195 322.42 374.316 324 375C322.777 373.805 322.58 373.684 321 373z"/>
<path style="fill:#366a92; stroke:none;" d="M416 373L416 379C416.951 376.715 416.951 375.285 416 373z"/>
<path style="fill:#286ea1; stroke:none;" d="M415 374C415 378.73 414.653 383.442 416 388C417.168 384.201 416.543 377.678 415 374z"/>
<path style="fill:#edd37f; stroke:none;" d="M111 376L108 381L114 380C113.041 378.403 112.274 377.341 111 376z"/>
<path style="fill:#c35766; stroke:none;" d="M127 378C126.009 382.125 124.158 385.378 122 389C126.558 387.258 128.67 382.669 127 378z"/>
<path style="fill:#915595; stroke:none;" d="M425 381C425.472 382.416 425.814 382.814 427 384C430.977 381.509 434.52 382.363 439 381.917C449.323 380.889 459.59 381 470 381C473.667 381 482.314 379.314 483 384C485.019 385.15 485.723 386.015 487 388C489.234 379.855 480.937 378.78 475 379.039C458.386 379.766 441.642 381 425 381z"/>
<path style="fill:#fad890; stroke:none;" d="M54 380L53 384C54.303 382.332 54.553 382.008 54 380z"/>
<path style="fill:#2071a9; stroke:none;" d="M401 380L400 406C402.744 399.479 405.569 386.031 401 380z"/>
<path style="fill:#f4d07c; stroke:none;" d="M102 383L108 382C105.471 380.961 103.824 380.907 102 383z"/>
<path style="fill:#a349a3; stroke:none;" d="M428 382C429.25 390.564 436.61 396.79 436.87 406C437.375 423.89 416.882 438.777 400 433.147C397.032 432.157 393.778 430.293 391.973 427.674C389.478 424.054 389.537 419.647 385 418C385 410.777 385.785 403.137 385 396C388.714 393.239 389.867 388.472 390 384C369.348 384 348.661 386 328 386C329.165 397.377 337.104 407.186 342.103 417.015C344.577 421.88 345.222 427.085 347.363 431.961C349.257 436.271 352.728 439.67 354.625 444C357.33 450.172 358.622 456.86 361.309 463C364.218 469.646 367.633 483.695 375 486C375.398 489.894 376.935 493.265 378 497L539 497C538.836 490.008 536.378 482.853 529 481C528.714 476.966 524.022 468.638 520 468C521.534 466.977 521.402 467.195 522 466C520.488 464.107 519.852 462.293 519 460L516 461C516.887 456.211 515.415 454.433 514.338 449.981C513.726 447.453 514.784 444.464 512 444C512.899 441.876 512.876 441.899 515 441C515.899 443.124 515.876 443.101 518 444C516.899 435.919 510.528 436.574 505.104 432.196C502.265 429.904 501.266 426.776 498 425C498.613 423.339 499.043 422.517 500 421C498.478 417.101 499.477 412.946 498.03 409.015C496.677 405.339 493.596 402.718 492.387 398.985C490.532 393.262 489.428 386.211 483 384C482.406 379.27 473.871 381 470 381C455.949 381 441.993 382 428 382z"/>
<path style="fill:#f3d573; stroke:none;" d="M54 383C49.8471 387.992 47.0966 395.631 46 402L61 398C56.819 396.259 53.2393 398.46 49 399C49.9677 393.635 54.6679 388.416 54 383z"/>
<path style="fill:#f7d897; stroke:none;" d="M100.667 383.333C100.222 383.778 101.278 383.722 101.333 383.667C101.778 383.222 100.722 383.278 100.667 383.333z"/>
<path style="fill:#ac6168; stroke:none;" d="M218.333 383.667C218.278 383.722 218.222 384.778 218.667 384.333C218.722 384.278 218.778 383.222 218.333 383.667z"/>
<path style="fill:#915591; stroke:none;" d="M327 388C331.522 385.485 336.007 386.252 341 385.91C352.016 385.156 362.965 385.444 374 384.961C379.244 384.731 386.633 381.806 390 387C391.081 385.542 391.436 384.752 392 383C383.597 383 375.347 384 367 384C358.852 384 350.046 383.066 342 384.389C337.672 385.1 328.068 383.016 327 388z"/>
<path style="fill:#eed698; stroke:none;" d="M96 384C97.2484 384.685 97.5484 384.749 99 385C97.7517 384.315 97.4515 384.251 96 384z"/>
<path style="fill:#f2d673; stroke:none;" d="M85 388C88.7191 389.097 92.3529 386.995 96 386C92.1838 384.647 88.6312 386.602 85 388z"/>
<path style="fill:#965396; stroke:none;" d="M388 390C387.345 392.537 386.724 394.047 385 396C385.468 403.268 385 410.707 385 418L387 418C386.545 407.401 386.673 400.203 390 390L388 390z"/>
<path style="fill:#f5de9b; stroke:none;" d="M77.6667 391.333C77.2222 391.778 78.2778 391.722 78.3333 391.667C78.7778 391.222 77.7222 391.278 77.6667 391.333z"/>
<path style="fill:#c45c5d; stroke:none;" d="M92 398C97.3083 400.051 112.46 395.44 116 391C107.749 392.218 100.112 396.123 92 398z"/>
<path style="fill:#e9db90; stroke:none;" d="M73 392C74.2484 392.685 74.5484 392.749 76 393C74.7517 392.315 74.4515 392.251 73 392z"/>
<path style="fill:#eed793; stroke:none;" d="M71.6667 393.333C71.2222 393.778 72.2778 393.722 72.3333 393.667C72.7777 393.222 71.7222 393.278 71.6667 393.333z"/>
<path style="fill:#2d6d99; stroke:none;" d="M419 393C419.617 395.704 420.544 397.63 422 400C422.441 397 421.023 395.188 419 393z"/>
<path style="fill:#eed581; stroke:none;" d="M61 396C64.0619 396.906 66.9145 395.704 70 395C66.8298 393.865 64.0992 394.84 61 396z"/>
<path style="fill:#c25864; stroke:none;" d="M211 395C210.132 397.355 209.426 399.531 209 402C211.032 399.813 212.094 397.845 213 395L211 395z"/>
<path style="fill:#c09ebf; stroke:none;" d="M387 397L388 398L387 397z"/>
<path style="fill:#915591; stroke:none;" d="M492 397C492.27 399.687 492.818 401.57 494 404C494.485 401.255 493.529 399.318 492 397z"/>
<path style="fill:#b85c61; stroke:none;" d="M84 401C86.8506 401.844 89.1829 400.889 92 400C89.1494 399.156 86.8171 400.111 84 401z"/>
<path style="fill:#2e6c9d; stroke:none;" d="M399 399C398.681 406.42 395.968 415.788 404 420C402.09 416.546 400.313 412.97 399.765 409C399.282 405.504 400.384 402.33 399 399z"/>
<path style="fill:#e3d69f; stroke:none;" d="M50.6667 400.333C50.2222 400.778 51.2778 400.722 51.3333 400.667C51.7778 400.222 50.7222 400.278 50.6667 400.333z"/>
<path style="fill:#e0d3ca; stroke:none;" d="M45.3333 401.667C45.2777 401.722 45.2222 402.778 45.6667 402.333C45.7222 402.278 45.7778 401.222 45.3333 401.667z"/>
<path style="fill:#c85d65; stroke:none;" d="M42 415C46.3109 416.542 50.7818 414.124 55 412.908C64.7909 410.086 74.4658 406.59 84 403C79.7973 401.757 75.0453 404.318 71 405.667C61.4303 408.857 51.8296 412.726 42 415z"/>
<path style="fill:#346b94; stroke:none;" d="M424 403L424 410C425.059 407.466 425.059 405.534 424 403z"/>
<path style="fill:#b4656a; stroke:none;" d="M203 412C200.2 416.967 198.197 422.423 197 428C200.264 424.263 204.032 416.985 203 412z"/>
<path style="fill:#925692; stroke:none;" d="M339 412C340.435 417.246 342.921 421.999 345 427C346.552 422.231 342.354 415.347 339 412z"/>
<path style="fill:#366a99; stroke:none;" d="M422 412C421.014 413.479 421 413.203 421 415C422.289 413.557 422.401 413.766 422 412z"/>
<path style="fill:#a24aa0; stroke:none;" d="M499 412C498.866 415.375 498.242 418.055 500 421C498.733 422.543 498.511 423.048 498 425C500.792 427.291 502.2 430.689 505.104 432.811C510.569 436.803 516.219 436.451 518 444C515.332 442.322 512.903 439.705 512 444C515.299 444 513.701 447.343 514 450C514.264 452.347 515.814 453.173 516.5 455.167C517.086 456.87 516.14 459.228 516 461C517.797 461 517.521 460.986 519 460C520.088 463.265 519.793 464.793 522 467L520 467L523 469C522.652 472.262 528.777 480.313 532 481C529.893 473.737 526.243 467.15 523.758 460C522.247 455.654 520.307 451.692 521.639 447C523.945 438.876 530.215 436.381 538 436.039C542.1 435.859 547.319 436.854 550.486 433.566C556.325 427.505 551.522 417.597 544 416.228C537.232 414.997 533.872 419.008 528 421C524.6 433.132 512.542 431.943 505.355 423.74C502.326 420.283 501.841 415.555 499 412z"/>
<path style="fill:#b06167; stroke:none;" d="M167 414C169.613 415.098 172.165 414.993 175 415C172.387 413.902 169.836 414.007 167 414z"/>
<path style="fill:#3c6787; stroke:none;" d="M418 418C419.457 416.896 419.896 416.457 421 415C418.876 415.899 418.899 415.876 418 418z"/>
<path style="fill:#8e5987; stroke:none;" d="M538 415C539.506 415.683 540.315 415.826 542 416C540.494 415.317 539.685 415.174 538 415z"/>
<path style="fill:#b1646e; stroke:none;" d="M39 418L42 417C40.2218 416.045 39.9786 416.234 39 418z"/>
<path style="fill:#9b676b; stroke:none;" d="M155.667 417.333C155.222 417.778 156.278 417.722 156.333 417.667C156.778 417.222 155.722 417.278 155.667 417.333z"/>
<path style="fill:#924f92; stroke:none;" d="M529 420C531.888 420.41 533.115 419.153 535 417C532.778 417.81 531.01 418.739 529 420z"/>
<path style="fill:#ba6972; stroke:none;" d="M153 418C152.014 419.479 152 419.203 152 421C153.289 419.557 153.401 419.766 153 418z"/>
<path style="fill:#3d6990; stroke:none;" d="M416.667 418.333C416.222 418.778 417.278 418.722 417.333 418.667C417.778 418.222 416.722 418.278 416.667 418.333z"/>
<path style="fill:#91548d; stroke:none;" d="M502 418C503.133 421.805 504.441 424.15 508 426C506.298 422.952 504.574 420.358 502 418z"/>
<path style="fill:#376890; stroke:none;" d="M404 420C406.89 421.213 409.874 420.998 413 421C410.11 419.787 407.126 420.002 404 420z"/>
<path style="fill:#a2656c; stroke:none;" d="M151 421L150 423L152 423C152 421.147 152.3 421.65 151 421z"/>
<path style="fill:#94529a; stroke:none;" d="M527 422C523.874 426.244 520.305 429.225 515 430C520.002 432.036 528.227 428.018 527 422z"/>
<path style="fill:#be5967; stroke:none;" d="M36 423L34 430C35.9814 427.723 36.8664 425.952 36 423z"/>
<path style="fill:#be6169; stroke:none;" d="M148 424C144.514 430.41 143.919 437.96 146 445C147.001 441.747 145.824 438.411 146.108 435C146.438 431.034 148.322 427.533 150 424L148 424z"/>
<path style="fill:#935e94; stroke:none;" d="M553 425L552 432C553.827 429.588 554.15 427.831 553 425z"/>
<path style="fill:#935093; stroke:none;" d="M391 426C393.974 435.029 405.326 434 413 434C409.504 432.533 405.651 433.301 402 432.2C397.933 430.973 394.566 428.198 391 426z"/>
<path style="fill:#92578f; stroke:none;" d="M509 427C510.686 428.656 511.746 429.251 514 430C512.314 428.344 511.254 427.749 509 427z"/>
<path style="fill:#905291; stroke:none;" d="M415 434C419.384 432.595 423.006 431.631 426 428C422.225 429.351 417.433 430.757 415 434z"/>
<path style="fill:#c55c61; stroke:none;" d="M33 430C29.4711 442.344 21.9706 453.494 19 466C23.862 460.798 28.5057 450.132 29 443L32 443C32.545 438.527 34.8141 434.374 33 430z"/>
<path style="fill:#955494; stroke:none;" d="M350 436C351.24 442.958 355.321 449.471 358 456C359.613 450.122 353.842 440.338 350 436z"/>
<path style="fill:#8b598a; stroke:none;" d="M533 436C536.432 437.44 540.3 437 544 437C540.568 435.56 536.7 436 533 436z"/>
<path style="fill:#875e86; stroke:none;" d="M526 438C528.044 438.774 528.845 438.592 531 438C528.956 437.226 528.155 437.408 526 438z"/>
<path style="fill:#ba6467; stroke:none;" d="M147 445C147.651 447.434 148.16 448.283 150 450C149.199 447.896 148.503 446.663 147 445z"/>
<path style="fill:#b7646e; stroke:none;" d="M151 453C152.223 454.195 152.42 454.316 154 455C152.777 453.805 152.58 453.684 151 453z"/>
<path style="fill:#b0656a; stroke:none;" d="M179 455C182.384 457.266 183.684 458.853 184 463C185.996 458.19 183.995 455.389 179 455z"/>
<path style="fill:#bc6669; stroke:none;" d="M159 457C164.675 460.877 172.889 458.907 179 457C175.543 455.801 172.558 457.638 169 457.881C165.668 458.109 162.312 457.261 159 457z"/>
<path style="fill:#c55d66; stroke:none;" d="M183 458C182.982 463.209 181.326 467.876 181 473C184.25 468.913 185.029 462.836 183 458z"/>
<path style="fill:#91568e; stroke:none;" d="M525 465C525.397 467.301 525.957 468.905 527 471C527.444 468.417 526.631 467.043 525 465z"/>
<path style="fill:#c16069; stroke:none;" d="M16 471L11 485C14.4052 481.604 17.8217 475.814 16 471z"/>
<path style="fill:#c45c63; stroke:none;" d="M180 473C176.98 477.869 175.064 482.234 175 488C177.468 484.098 180.954 477.611 180 473z"/>
<path style="fill:#915490; stroke:none;" d="M531 478C531.648 480.394 532.032 481.536 534 483C533.251 480.746 532.656 479.686 531 478z"/>
<path style="fill:#925591; stroke:none;" d="M372 486C373.338 489.261 374.674 494.848 377.649 496.972C380.266 498.842 384.972 498 388 498L412 498L499 498C512.003 498 528.525 500.687 541 497L540 493C539.317 494.506 539.174 495.315 539 497L378 497L375 486L372 486z"/>
<path style="fill:#bc6065; stroke:none;" d="M171 494C167.27 497.495 162.878 497 158 497L134 497L42 497L19 497C14.7529 497 10.4856 497.641 7 495C5.45649 499.095 12.3984 498 15 498L45 498L172 498L173 494L171 494z"/>
</svg>
