<?xml version="1.0" standalone="yes"?>
<svg xmlns="http://www.w3.org/2000/svg" width="223" height="226">
<path style="fill:#ffffff; stroke:none;" d="M0 0L0 154C2.92229 150.869 5.47584 147.832 10 147.228C15.2164 146.532 21.353 149.938 25.2577 144.772C29.5338 139.114 27.0093 126.368 25.6613 120C24.0912 112.583 24.2893 105.506 23.9606 98C23.656 91.0423 22.8394 85.8157 25 79C34.7192 81.5145 49.4756 83.1281 48.956 69C48.8847 67.0611 48.6983 64.9358 47.6821 63.2284C43.4221 56.0704 32.9973 62.8849 27.2245 59.8827C24.4664 58.4483 23.5767 54.7673 22.8997 52C20.8103 43.4594 23.3227 34.582 24 26C31.7187 26.6091 39.2269 27.0921 47 26.9961C49.8993 26.9603 54.0624 27.159 55.9722 24.4861C59.2358 19.9186 55.3154 12.9838 56.473 8.00386C57.3011 4.4417 59.992 2.59909 63 1C57.2927 -1.39487 49.154 0 43 0L0 0z"/>
<path style="fill:#b8b8f2; stroke:none;" d="M63 0L64 1L63 0z"/>
<path style="fill:#5352e3; stroke:none;" d="M64.6667 0.333328C64.2222 0.777817 65.2778 0.722229 65.3333 0.666672C65.7777 0.22226 64.7222 0.27774 64.6667 0.333328z"/>
<path style="fill:#0500dd; stroke:none;" d="M25 26C23.1603 33.7059 22.5068 42.0896 23.0903 50C23.3062 52.927 23.7515 57.1753 26.4298 58.9715C33.359 63.6185 43.3458 54.3035 48.3472 65.0185C49.0541 66.5329 49.5114 68.33 49.5941 70C50.079 79.7908 40.4572 81.2715 33 80.9606C30.7125 80.8653 26.7706 79.5949 25.0278 81.6427C23.3413 83.6243 24.0002 87.6085 24 90C23.9995 97.6972 25 105.281 25 113C34.2139 111.759 49.9169 105.013 57.5517 113.394C64.1334 120.62 51.9419 133.058 64.0046 137.852C65.5879 138.481 67.2993 138.797 69 138.817C70.3211 138.833 71.711 138.678 72.9954 138.365C85.9004 135.223 73.295 119.271 80.2323 112.228C87.1597 105.195 103.417 110.914 112 112C112.612 104.242 116.433 88.0013 110.157 81.7423C103.727 75.3298 91.9542 85.8098 86.5764 74.956C85.8125 73.4144 85.4653 71.7132 85.4745 70C85.4835 68.3496 85.8098 66.5645 86.3449 65.0046C88.8984 57.5605 95.6087 58.2575 102 59.1304C104.578 59.4825 108.063 60.5563 110.142 58.3927C112.358 56.0863 111.986 51.9263 111.999 49C112.034 41.2549 110.607 33.6949 110 26C101.449 27.6583 86.3729 32.3517 79.419 24.7716C72.958 17.7289 81.9861 0.143845 67 0.486115C65.684 0.516174 64.2278 0.770233 63.0046 1.26775C51.682 5.87325 61.7898 16.5788 56.3966 23.8526C50.4718 31.8436 33.0381 27.5145 25 26z"/>
<path style="fill:#5352e3; stroke:none;" d="M69 0L70 1L69 0z"/>
<path style="fill:#9292eb; stroke:none;" d="M70 0L71 1L70 0z"/>
<path style="fill:#ffffff; stroke:none;" d="M71 0C73.7151 2.62221 76.6093 5.0535 77.2724 9.00076C78.2814 15.0072 74.8163 21.9258 81.1088 26.142C85.6834 29.2071 92.8751 28.1212 98 27.4236C106.349 26.2872 114.67 25.0113 123 23.7253C128.819 22.8269 134.283 21.3965 139.956 23.9946C151.476 29.2704 135.772 49.9612 153 50.9552C154.952 51.0679 157.065 51.0621 158.985 50.6559C170.938 48.126 160.372 33.642 165.473 27.1335C171.761 19.1113 189.229 24.9274 198 25C196.943 32.8505 195.996 40.018 196 48C196.001 51.1102 195.261 55.4874 198.318 57.4275C206.258 62.467 216.608 53.0697 222 64C224.395 58.2927 223 50.154 223 44L223 0L71 0z"/>
<path style="fill:#6f6ee6; stroke:none;" d="M61 1L62 2L61 1z"/>
<path style="fill:#3d3ce1; stroke:none;" d="M72 1L73 2L72 1z"/>
<path style="fill:#8585e9; stroke:none;" d="M59 2L60 3L59 2z"/>
<path style="fill:#c8c8f4; stroke:none;" d="M74 2L75 3L74 2z"/>
<path style="fill:#3d3ce1; stroke:none;" d="M58 3L59 4L58 3z"/>
<path style="fill:#7373e7; stroke:none;" d="M57 4L58 5L57 4z"/>
<path style="fill:#a7a7ef; stroke:none;" d="M76 5L77 6L76 5z"/>
<path style="fill:#7373e7; stroke:none;" d="M56 6L56 11C56.8299 8.96953 56.8299 8.03047 56 6z"/>
<path style="fill:#3c3bce; stroke:none;" d="M76 6L77 7L76 6z"/>
<path style="fill:#d7d7f7; stroke:none;" d="M77 8L77 12C77.7102 10.2405 77.7102 9.75951 77 8z"/>
<path style="fill:#c8c8f4; stroke:none;" d="M56.3333 11.6667C56.2778 11.7222 56.2222 12.7777 56.6667 12.3333C56.7222 12.2778 56.7778 11.2222 56.3333 11.6667z"/>
<path style="fill:#8585e9; stroke:none;" d="M57.3333 15.6667C57.2777 15.7223 57.2223 16.7777 57.6667 16.3333C57.7222 16.2778 57.7778 15.2222 57.3333 15.6667z"/>
<path style="fill:#5352e3; stroke:none;" d="M76 15L76 20C76.8299 17.9695 76.8299 17.0305 76 15z"/>
<path style="fill:#e7e7fa; stroke:none;" d="M57 17L57 23C57.9511 20.7147 57.9511 19.2853 57 17z"/>
<path style="fill:#a7a7ef; stroke:none;" d="M77 22L78 23L77 22z"/>
<path style="fill:#ffffe3; stroke:none;" d="M129 22C131.052 22.8743 132.747 22.9528 135 23C132.948 22.1258 131.253 22.0472 129 22z"/>
<path style="fill:#807fe9; stroke:none;" d="M57 23L58 24L57 23z"/>
<path style="fill:#ffff9d; stroke:none;" d="M124 23C125.248 23.6848 125.548 23.7488 127 24C125.752 23.3152 125.451 23.2512 124 23z"/>
<path style="fill:#ffff00; stroke:none;" d="M111 26C111.179 34.6909 116.859 51.4103 110.272 58.6427C108.095 61.0335 104.809 60.1883 102 59.7531C95.4563 58.7391 88.4712 58.1291 86.5332 66.0039C86.1355 67.6199 85.9981 69.3389 86.0586 71C86.598 85.7953 102.199 75.7661 109.581 80.9923C112.02 82.7185 112.745 86.2586 113.331 89C114.986 96.7391 113.476 104.389 112 112C119.248 115.079 127.174 116.105 135 115.996C138.189 115.952 142.132 115.912 143.958 112.772C148.214 105.451 138.598 93.3917 150.015 88.8935C151.574 88.2793 153.333 88.0643 155 88.0841C156.722 88.1046 158.439 88.3819 159.985 89.179C166.727 92.6569 165.557 98.7729 164.59 105C164.145 107.87 163.244 111.946 165.603 114.258C168.093 116.697 172.874 116.082 176 115.715C183.285 114.858 190.658 114.005 198 114C197.268 104.738 191.634 90.6939 197.14 82.1481C199.735 78.1203 204.019 79.4547 208 79.8302C214.643 80.4569 220.675 79.402 222.301 71.9992C222.666 70.3355 222.72 68.6895 222.521 67.0008C222.302 65.1397 221.91 62.972 220.836 61.3943C215.164 53.0637 201.395 64.4253 196.028 54.8912C193.104 49.6968 195.24 40.5682 196 35C196.313 32.7106 197.323 29.546 196.357 27.3179C195.165 24.5686 191.431 25.0626 189 24.9861C182.739 24.7892 176.283 23.0623 170.005 24.2284C161.532 25.8019 164.902 34.1162 165.521 40C166.136 45.8549 162.677 50.069 157 51.3009C155.345 51.66 153.665 51.7641 152 51.4028C150.632 51.1059 149.191 50.5442 148.019 49.7716C138.165 43.2766 147.951 35.0527 143.883 27.2245C142.298 24.1744 138.099 23.3438 135 23.0934C127.251 22.467 118.612 24.586 111 26z"/>
<path style="fill:#ffffb5; stroke:none;" d="M138.667 23.3333C138.222 23.7778 139.278 23.7222 139.333 23.6667C139.778 23.2222 138.722 23.2778 138.667 23.3333z"/>
<path style="fill:#ffff9d; stroke:none;" d="M170.667 23.3333C170.222 23.7778 171.278 23.7222 171.333 23.6667C171.778 23.2222 170.722 23.2777 170.667 23.3333z"/>
<path style="fill:#ffff72; stroke:none;" d="M172 23C173.506 23.683 174.315 23.8259 176 24C174.494 23.317 173.685 23.1741 172 23z"/>
<path style="fill:#ffff9d; stroke:none;" d="M176.667 23.3333C176.222 23.7778 177.278 23.7222 177.333 23.6667C177.778 23.2222 176.722 23.2778 176.667 23.3333z"/>
<path style="fill:#9292eb; stroke:none;" d="M78 24L79 25L78 24z"/>
<path style="fill:#ffffb5; stroke:none;" d="M117 24C118.248 24.6848 118.548 24.7488 120 25C118.752 24.3152 118.452 24.2512 117 24z"/>
<path style="fill:#ffff29; stroke:none;" d="M120.667 24.3333C120.222 24.7778 121.278 24.7222 121.333 24.6667C121.778 24.2223 120.722 24.2778 120.667 24.3333z"/>
<path style="fill:#ffff5e; stroke:none;" d="M141 24L142 25L141 24z"/>
<path style="fill:#ffff9d; stroke:none;" d="M167 24L168 25L167 24z"/>
<path style="fill:#ffff5e; stroke:none;" d="M183.667 24.3333C183.222 24.7778 184.278 24.7222 184.333 24.6667C184.778 24.2222 183.722 24.2778 183.667 24.3333z"/>
<path style="fill:#ffff8d; stroke:none;" d="M185 24C186.248 24.6848 186.548 24.7488 188 25C186.752 24.3152 186.452 24.2512 185 24z"/>
<path style="fill:#ffffc4; stroke:none;" d="M188 24C189.248 24.6848 189.548 24.7488 191 25C189.752 24.3152 189.452 24.2512 188 24z"/>
<path style="fill:#a7a7ef; stroke:none;" d="M79 25L80 26L79 25z"/>
<path style="fill:#ffff9d; stroke:none;" d="M111 25C112.248 25.6848 112.548 25.7488 114 26C112.752 25.3152 112.452 25.2512 111 25M143 25L144 26L143 25z"/>
<path style="fill:#ffff5e; stroke:none;" d="M196 25C196.545 26.6352 196.365 26.455 198 27L198 25L196 25z"/>
<path style="fill:#5352e3; stroke:none;" d="M24.3333 26.6667C24.2778 26.7222 24.2222 27.7778 24.6667 27.3333C24.7222 27.2778 24.7778 26.2222 24.3333 26.6667z"/>
<path style="fill:#a7a7ef; stroke:none;" d="M27.6667 26.3333C27.2222 26.7778 28.2778 26.7222 28.3333 26.6667C28.7778 26.2222 27.7222 26.2778 27.6667 26.3333z"/>
<path style="fill:#b8b8f2; stroke:none;" d="M53 26L54 27L53 26z"/>
<path style="fill:#6f6ee6; stroke:none;" d="M54 26L55 27L54 26z"/>
<path style="fill:#5858e3; stroke:none;" d="M80 26L81 27L80 26z"/>
<path style="fill:#a0a0ee; stroke:none;" d="M105 26C106.248 26.6848 106.548 26.7488 108 27C106.752 26.3152 106.452 26.2512 105 26z"/>
<path style="fill:#d7d75b; stroke:none;" d="M110 26L111 27L110 26z"/>
<path style="fill:#5858e3; stroke:none;" d="M33.6667 27.3333C33.2223 27.7777 34.2778 27.7222 34.3333 27.6667C34.7778 27.2222 33.7222 27.2778 33.6667 27.3333z"/>
<path style="fill:#8585e9; stroke:none;" d="M35 27C36.2483 27.6848 36.5485 27.7488 38 28C36.7516 27.3152 36.4517 27.2512 35 27z"/>
<path style="fill:#b8b8f2; stroke:none;" d="M38 27C40.8897 28.2129 43.8741 27.9983 47 28C44.1103 26.787 41.1259 27.0017 38 27z"/>
<path style="fill:#807fe9; stroke:none;" d="M47 27C48.2483 27.6848 48.5485 27.7488 50 28C48.7516 27.3152 48.4517 27.2512 47 27z"/>
<path style="fill:#3d3ce1; stroke:none;" d="M82 27L83 28L82 27z"/>
<path style="fill:#9292eb; stroke:none;" d="M83 27L84 28L83 27z"/>
<path style="fill:#d7d7f7; stroke:none;" d="M97 27C98.2484 27.6848 98.5484 27.7488 100 28C98.7517 27.3152 98.4515 27.2512 97 27z"/>
<path style="fill:#6f6ee6; stroke:none;" d="M100 27C101.248 27.6848 101.548 27.7488 103 28C101.752 27.3152 101.451 27.2512 100 27z"/>
<path style="fill:#93929c; stroke:none;" d="M110 27L110 30C110.696 28.4463 110.696 28.5537 110 27z"/>
<path style="fill:#ffffd1; stroke:none;" d="M197.333 27.6667C197.278 27.7222 197.222 28.7778 197.667 28.3333C197.722 28.2778 197.778 27.2222 197.333 27.6667z"/>
<path style="fill:#5858e3; stroke:none;" d="M88 28C89.769 28.7789 91.0359 28.9124 93 29C91.231 28.2211 89.9641 28.0876 88 28z"/>
<path style="fill:#2524df; stroke:none;" d="M93.6667 28.3333C93.2221 28.7779 94.2778 28.7222 94.3333 28.6667C94.7778 28.2222 93.7222 28.2778 93.6667 28.3333z"/>
<path style="fill:#ffff79; stroke:none;" d="M163 29L163 32C163.696 30.4463 163.696 30.5537 163 29z"/>
<path style="fill:#c8c8f4; stroke:none;" d="M23 30L23 33C23.6961 31.4463 23.6961 31.5537 23 30z"/>
<path style="fill:#3c3bce; stroke:none;" d="M110 30L111 31L110 30z"/>
<path style="fill:#ffff5e; stroke:none;" d="M144 30L145 31L144 30z"/>
<path style="fill:#ffffd1; stroke:none;" d="M144.333 31.6667C144.278 31.7222 144.222 32.7778 144.667 32.3333C144.722 32.2778 144.778 31.2222 144.333 31.6667z"/>
<path style="fill:#ffff9d; stroke:none;" d="M196.333 31.6667C196.278 31.7222 196.222 32.7778 196.667 32.3333C196.722 32.2778 196.778 31.2222 196.333 31.6667z"/>
<path style="fill:#e8e83e; stroke:none;" d="M111 32L111 35C111.696 33.4463 111.696 33.5537 111 32z"/>
<path style="fill:#6f6ee6; stroke:none;" d="M23 33L23 36C23.6961 34.4463 23.6961 34.5537 23 33z"/>
<path style="fill:#ffff9d; stroke:none;" d="M164.333 34.6667C164.278 34.7222 164.222 35.7778 164.667 35.3333C164.722 35.2777 164.778 34.2223 164.333 34.6667z"/>
<path style="fill:#9e9e94; stroke:none;" d="M111.333 35.6667C111.278 35.7222 111.222 36.7778 111.667 36.3333C111.722 36.2777 111.778 35.2223 111.333 35.6667z"/>
<path style="fill:#ffff72; stroke:none;" d="M143 36L143 39C143.696 37.4463 143.696 37.5537 143 36z"/>
<path style="fill:#6969b9; stroke:none;" d="M111 37L111 40C111.696 38.4463 111.696 38.5537 111 37z"/>
<path style="fill:#ffff72; stroke:none;" d="M195.333 38.6667C195.278 38.7222 195.222 39.7778 195.667 39.3333C195.722 39.2777 195.778 38.2223 195.333 38.6667z"/>
<path style="fill:#c8c8f4; stroke:none;" d="M22 39L22 51C23.5124 47.3957 23.5124 42.6043 22 39z"/>
<path style="fill:#ffffb5; stroke:none;" d="M143 39L143 46C144.059 43.4657 144.059 41.5343 143 39z"/>
<path style="fill:#ffff79; stroke:none;" d="M165 39L165 45C165.951 42.7147 165.951 41.2853 165 39z"/>
<path style="fill:#ffffcb; stroke:none;" d="M195 40L195 54C196.667 50.0279 196.667 43.9721 195 40z"/>
<path style="fill:#d7d75b; stroke:none;" d="M112 43L112 52C113.256 49.0059 113.256 45.9941 112 43z"/>
<path style="fill:#ffff5e; stroke:none;" d="M143 46L144 47L143 46z"/>
<path style="fill:#ffff8d; stroke:none;" d="M144 47L145 48L144 47M164 47L165 48L164 47z"/>
<path style="fill:#ffff79; stroke:none;" d="M145 48L146 49L145 48z"/>
<path style="fill:#ffff72; stroke:none;" d="M148 50L149 51L148 50z"/>
<path style="fill:#ffff8d; stroke:none;" d="M160 50L161 51L160 50z"/>
<path style="fill:#ffff9d; stroke:none;" d="M151 51C153.052 51.8743 154.747 51.9528 157 52C154.948 51.1257 153.253 51.0472 151 51z"/>
<path style="fill:#ffff40; stroke:none;" d="M112.333 52.6667C112.278 52.7222 112.222 53.7778 112.667 53.3333C112.722 53.2777 112.778 52.2223 112.333 52.6667z"/>
<path style="fill:#3d3ce1; stroke:none;" d="M23 53L24 54L23 53z"/>
<path style="fill:#7373e7; stroke:none;" d="M23 54L24 55L23 54z"/>
<path style="fill:#ffff9d; stroke:none;" d="M195.333 54.6667C195.278 54.7222 195.222 55.7778 195.667 55.3333C195.722 55.2778 195.778 54.2223 195.333 54.6667z"/>
<path style="fill:#5e5ebf; stroke:none;" d="M111 56L112 57L111 56z"/>
<path style="fill:#5352e3; stroke:none;" d="M24 57L25 58L24 57z"/>
<path style="fill:#9e9e94; stroke:none;" d="M111 57L112 58L111 57z"/>
<path style="fill:#ffffb5; stroke:none;" d="M197 57L198 58L197 57z"/>
<path style="fill:#8b8ba5; stroke:none;" d="M92 58C94.0521 58.8742 95.7472 58.9528 98 59C95.9479 58.1258 94.2528 58.0472 92 58z"/>
<path style="fill:#ffffc4; stroke:none;" d="M199.667 58.3333C199.222 58.7778 200.278 58.7222 200.333 58.6667C200.778 58.2222 199.722 58.2778 199.667 58.3333z"/>
<path style="fill:#ffffb5; stroke:none;" d="M206 58C207.248 58.6848 207.548 58.7488 209 59C207.752 58.3152 207.452 58.2512 206 58z"/>
<path style="fill:#ffff5e; stroke:none;" d="M209.667 58.3333C209.222 58.7778 210.278 58.7222 210.333 58.6667C210.778 58.2222 209.722 58.2778 209.667 58.3333z"/>
<path style="fill:#ffff79; stroke:none;" d="M217 58L218 59L217 58z"/>
<path style="fill:#9292eb; stroke:none;" d="M25 59L26 60L25 59z"/>
<path style="fill:#807fe9; stroke:none;" d="M33 59C34.2483 59.6848 34.5485 59.7488 36 60C34.7516 59.3152 34.4516 59.2512 33 59z"/>
<path style="fill:#b8b8f2; stroke:none;" d="M36 59C38.3316 59.9845 40.4566 59.9813 43 60C40.6685 59.0155 38.5433 59.0187 36 59z"/>
<path style="fill:#3c3bce; stroke:none;" d="M89 59L90 60L89 59z"/>
<path style="fill:#cdcd64; stroke:none;" d="M90 59L91 60L90 59M100 59C101.248 59.6848 101.548 59.7488 103 60C101.752 59.3152 101.452 59.2512 100 59z"/>
<path style="fill:#7777b0; stroke:none;" d="M103 59L104 60L103 59z"/>
<path style="fill:#3c3bce; stroke:none;" d="M104 59L105 60L104 59z"/>
<path style="fill:#7777b0; stroke:none;" d="M110 59L111 60L110 59z"/>
<path style="fill:#ffff5e; stroke:none;" d="M219 59L220 60L219 59z"/>
<path style="fill:#b8b8f2; stroke:none;" d="M26 60L27 61L26 60z"/>
<path style="fill:#8585e9; stroke:none;" d="M27.6667 60.3333C27.2222 60.7778 28.2778 60.7222 28.3333 60.6667C28.7778 60.2222 27.7222 60.2778 27.6667 60.3333z"/>
<path style="fill:#e2e2f9; stroke:none;" d="M29.6667 60.3333C29.2222 60.7778 30.2778 60.7222 30.3333 60.6667C30.7778 60.2222 29.7222 60.2778 29.6667 60.3333z"/>
<path style="fill:#9292eb; stroke:none;" d="M45 60L46 61L45 60z"/>
<path style="fill:#6969b9; stroke:none;" d="M88 60L89 61L88 60z"/>
<path style="fill:#cdcd64; stroke:none;" d="M106.667 60.3333C106.222 60.7778 107.278 60.7222 107.333 60.6667C107.778 60.2222 106.722 60.2778 106.667 60.3333z"/>
<path style="fill:#adad87; stroke:none;" d="M108.667 60.3333C108.222 60.7778 109.278 60.7222 109.333 60.6667C109.778 60.2222 108.722 60.2778 108.667 60.3333z"/>
<path style="fill:#3c3bce; stroke:none;" d="M87 61L88 62L87 61z"/>
<path style="fill:#ffffb5; stroke:none;" d="M221 61L222 62L221 61z"/>
<path style="fill:#dede4f; stroke:none;" d="M87 62L88 63L87 62z"/>
<path style="fill:#3c3bce; stroke:none;" d="M86 63L87 64L86 63z"/>
<path style="fill:#9292eb; stroke:none;" d="M48 64L49 65L48 64z"/>
<path style="fill:#a7a78c; stroke:none;" d="M86 64L87 65L86 64z"/>
<path style="fill:#ffff79; stroke:none;" d="M222 64L222 67C222.696 65.4463 222.696 65.5537 222 64z"/>
<path style="fill:#d7d75b; stroke:none;" d="M86 65L87 66L86 65z"/>
<path style="fill:#8585e9; stroke:none;" d="M49 68L49 73C49.8299 70.9695 49.8299 70.0305 49 68z"/>
<path style="fill:#5e5ebf; stroke:none;" d="M85 68L85 73C85.8299 70.9695 85.8299 70.0305 85 68z"/>
<path style="fill:#ffff79; stroke:none;" d="M222 71L222 74C222.696 72.4463 222.696 72.5537 222 71z"/>
<path style="fill:#3d3ce1; stroke:none;" d="M49 73L50 74L49 73z"/>
<path style="fill:#ffffff; stroke:none;" d="M222 74C219.474 77.4792 216.598 80.4314 212 80.5255C207.504 80.6174 199.334 77.7535 196.894 83.1481C194.918 87.516 195.812 94.39 196.424 99C197.625 108.03 199.029 117 200.424 126C201.296 131.618 203.077 137.573 200.427 142.995C194.588 154.945 175.873 139.028 173.225 155C172.956 156.627 172.988 158.367 173.186 160C174.977 174.735 189.309 163.012 196.891 168.527C204.955 174.392 200.056 192.645 199 201C190.906 200.361 183.166 198.983 175 199C172.054 199.006 167.918 198.484 166.028 201.318C163.466 205.157 165.895 210.823 165.816 215C165.732 219.511 163.428 222.411 160 225C165.707 227.395 173.846 226 180 226L223 226L223 120L223 89C223 84.1913 223.875 78.4688 222 74z"/>
<path style="fill:#b8b8f2; stroke:none;" d="M48 75L49 76L48 75z"/>
<path style="fill:#adad87; stroke:none;" d="M86 75L87 76L86 75z"/>
<path style="fill:#ffff79; stroke:none;" d="M221 75L222 76L221 75z"/>
<path style="fill:#a7a7ef; stroke:none;" d="M47 77L48 78L47 77z"/>
<path style="fill:#93929c; stroke:none;" d="M87 77L88 78L87 77z"/>
<path style="fill:#c8c8f4; stroke:none;" d="M46 78L47 79L46 78z"/>
<path style="fill:#93929c; stroke:none;" d="M88 78L89 79L88 78z"/>
<path style="fill:#c8c8f4; stroke:none;" d="M25.6667 79.3333C25.2222 79.7778 26.2778 79.7222 26.3333 79.6667C26.7778 79.2222 25.7222 79.2778 25.6667 79.3333z"/>
<path style="fill:#a7a7ef; stroke:none;" d="M45 79L46 80L45 79z"/>
<path style="fill:#adad87; stroke:none;" d="M90 79L91 80L90 79z"/>
<path style="fill:#ffff40; stroke:none;" d="M103 79C104.248 79.6848 104.548 79.7488 106 80C104.752 79.3152 104.451 79.2512 103 79z"/>
<path style="fill:#ffffb5; stroke:none;" d="M198.667 79.3333C198.222 79.7778 199.278 79.7222 199.333 79.6667C199.778 79.2222 198.722 79.2778 198.667 79.3333z"/>
<path style="fill:#ffff72; stroke:none;" d="M200 79C201.506 79.683 202.315 79.8259 204 80C202.494 79.317 201.685 79.1741 200 79z"/>
<path style="fill:#ffff29; stroke:none;" d="M204.667 79.3333C204.222 79.7778 205.278 79.7222 205.333 79.6667C205.778 79.2222 204.722 79.2778 204.667 79.3333z"/>
<path style="fill:#ffffb5; stroke:none;" d="M217 79L218 80L217 79z"/>
<path style="fill:#a0a0ee; stroke:none;" d="M24 80L25 81L24 80z"/>
<path style="fill:#5352e3; stroke:none;" d="M28 80L29 81L28 80z"/>
<path style="fill:#b8b8f2; stroke:none;" d="M29 80C30.2483 80.6848 30.5485 80.7488 32 81C30.7516 80.3152 30.4516 80.2512 29 80z"/>
<path style="fill:#e7e7fa; stroke:none;" d="M40 80C41.506 80.683 42.3148 80.8259 44 81C42.494 80.317 41.6852 80.1741 40 80z"/>
<path style="fill:#6262bd; stroke:none;" d="M93 80C94.769 80.7789 96.0359 80.9124 98 81C96.231 80.2211 94.9641 80.0876 93 80z"/>
<path style="fill:#302fdf; stroke:none;" d="M98.6667 80.3333C98.2222 80.7778 99.2778 80.7222 99.3333 80.6667C99.7778 80.2222 98.7222 80.2778 98.6667 80.3333z"/>
<path style="fill:#6969b9; stroke:none;" d="M109 80L110 81L109 80z"/>
<path style="fill:#dede4f; stroke:none;" d="M110 80L111 81L110 80z"/>
<path style="fill:#ffff9d; stroke:none;" d="M197 80L198 81L197 80z"/>
<path style="fill:#ffffb5; stroke:none;" d="M210 80C211.769 80.7789 213.036 80.9124 215 81C213.231 80.2211 211.964 80.0876 210 80z"/>
<path style="fill:#c4c46f; stroke:none;" d="M111 82L112 83L111 82z"/>
<path style="fill:#ffffcb; stroke:none;" d="M196.333 82.6667C196.278 82.7222 196.222 83.7778 196.667 83.3333C196.722 83.2777 196.778 82.2223 196.333 82.6667z"/>
<path style="fill:#b8b8f2; stroke:none;" d="M23 83L23 90C24.0595 87.4657 24.0595 85.5343 23 83z"/>
<path style="fill:#5e5ebf; stroke:none;" d="M111 83L112 84L111 83z"/>
<path style="fill:#adad87; stroke:none;" d="M112 85L113 86L112 85z"/>
<path style="fill:#6969b9; stroke:none;" d="M112 86L113 87L112 86z"/>
<path style="fill:#ffff79; stroke:none;" d="M195 86L195 96C196.346 92.793 196.346 89.207 195 86z"/>
<path style="fill:#51c235; stroke:none;" d="M150.667 88.3333C150.222 88.7778 151.278 88.7222 151.333 88.6667C151.778 88.2222 150.722 88.2778 150.667 88.3333z"/>
<path style="fill:#00b53c; stroke:none;" d="M112 113C110.025 121.018 108.205 130.758 109.289 139C109.678 141.951 110.149 146.028 113.228 147.396C120.159 150.473 128.526 143.357 134.272 151.133C138.415 156.74 136.549 166.909 128.996 168.477C124.047 169.504 117.835 166.997 113 166C109.146 175.133 110.738 189.497 113 199C120.97 197.585 138.459 195.2 144.347 202.228C149.922 208.882 142.181 224.801 154.001 225.525C155.648 225.626 157.394 225.376 158.981 224.938C171.206 221.563 159.481 205.831 167.279 199.742C169.716 197.839 173.076 197.985 176 198.005C183.369 198.053 190.633 199.848 198 200C198.366 191.616 204.7 176.654 198.272 169.434C191.735 162.092 179.177 175.178 173.657 162.985C172.958 161.442 172.602 159.69 172.602 158C172.602 156.299 172.969 154.558 173.657 153.001C176.922 145.607 183.219 146.505 190 147.169C192.732 147.437 196.022 148.522 198.297 146.393C200.71 144.134 200.919 140.067 200.985 137C201.148 129.344 199.413 121.497 198 114C190.325 114.606 182.685 115.587 175 116.154C171.422 116.418 167.274 116.76 164.757 113.581C159.14 106.488 171.073 94.4493 159.956 89.0093C158.759 88.4237 157.315 88.2159 156 88.1443C154.337 88.0537 152.627 88.2828 151.015 88.6844C137.854 91.9642 149.793 107.201 142.732 113.811C134.938 121.108 120.938 114.204 112 113z"/>
<path style="fill:#75cc30; stroke:none;" d="M159 88L160 89L159 88z"/>
<path style="fill:#adad87; stroke:none;" d="M113 89L113 92C113.696 90.4463 113.696 90.5537 113 89z"/>
<path style="fill:#67c832; stroke:none;" d="M147 89L148 90L147 89z"/>
<path style="fill:#51c235; stroke:none;" d="M161 89L162 90L161 89z"/>
<path style="fill:#e7e7fa; stroke:none;" d="M23 90L23 94C23.7102 92.2405 23.7102 91.7595 23 90z"/>
<path style="fill:#75cc30; stroke:none;" d="M145 91L146 92L145 91z"/>
<path style="fill:#5e5ebf; stroke:none;" d="M113.333 92.6667C113.278 92.7222 113.222 93.7778 113.667 93.3333C113.722 93.2777 113.778 92.2223 113.333 92.6667z"/>
<path style="fill:#67c832; stroke:none;" d="M164 92L165 93L164 92z"/>
<path style="fill:#75cc30; stroke:none;" d="M144 93L144 96C144.696 94.4463 144.696 94.5537 144 93z"/>
<path style="fill:#3c3bce; stroke:none;" d="M113 94L113 99C113.83 96.9695 113.83 96.0305 113 94z"/>
<path style="fill:#51c235; stroke:none;" d="M165 94L165 100C165.951 97.7147 165.951 96.2853 165 94z"/>
<path style="fill:#5858e3; stroke:none;" d="M24 99L24 105C24.9511 102.715 24.9511 101.285 24 99z"/>
<path style="fill:#7777b0; stroke:none;" d="M113 99L113 102C113.696 100.446 113.696 100.554 113 99z"/>
<path style="fill:#ffffd1; stroke:none;" d="M196.333 99.6667C196.278 99.7222 196.222 100.778 196.667 100.333C196.722 100.278 196.778 99.2222 196.333 99.6667z"/>
<path style="fill:#ffff9d; stroke:none;" d="M196 101L196 104C196.696 102.446 196.696 102.554 196 101z"/>
<path style="fill:#c4c46f; stroke:none;" d="M113 102L113 105C113.696 103.446 113.696 103.554 113 102z"/>
<path style="fill:#67c832; stroke:none;" d="M144 103L144 106C144.696 104.446 144.696 104.554 144 103z"/>
<path style="fill:#51c235; stroke:none;" d="M164 103L165 104L164 103z"/>
<path style="fill:#c3e71f; stroke:none;" d="M164.333 104.667C164.278 104.722 164.222 105.778 164.667 105.333C164.722 105.278 164.778 104.222 164.333 104.667z"/>
<path style="fill:#a7a7ef; stroke:none;" d="M24 105L24 110C24.8299 107.97 24.8299 107.03 24 105z"/>
<path style="fill:#c3e71f; stroke:none;" d="M144.333 106.667C144.278 106.722 144.222 107.778 144.667 107.333C144.722 107.278 144.778 106.222 144.333 106.667z"/>
<path style="fill:#5e5ebf; stroke:none;" d="M112 107L113 108L112 107z"/>
<path style="fill:#ffffb5; stroke:none;" d="M197 107L197 110C197.696 108.446 197.696 108.554 197 107z"/>
<path style="fill:#93929c; stroke:none;" d="M112 108L113 109L112 108z"/>
<path style="fill:#9dd928; stroke:none;" d="M163 108L163 113C163.83 110.969 163.83 110.03 163 108z"/>
<path style="fill:#3e00cd; stroke:none;" d="M44 109C45.769 109.779 47.0359 109.912 49 110C47.231 109.221 45.9641 109.088 44 109z"/>
<path style="fill:#5f00be; stroke:none;" d="M83 109L84 110L83 109z"/>
<path style="fill:#ca0068; stroke:none;" d="M84.6667 109.333C84.2222 109.778 85.2778 109.722 85.3333 109.667C85.7778 109.222 84.7222 109.278 84.6667 109.333z"/>
<path style="fill:#eb003c; stroke:none;" d="M86 109C87.7691 109.779 89.0359 109.912 91 110C89.231 109.221 87.9641 109.088 86 109z"/>
<path style="fill:#af0086; stroke:none;" d="M91 109C92.2484 109.685 92.5484 109.749 94 110C92.7517 109.315 92.4516 109.251 91 109z"/>
<path style="fill:#c4c46f; stroke:none;" d="M112 109L113 110L112 109z"/>
<path style="fill:#c8c8f4; stroke:none;" d="M24 110L24 114C24.7102 112.24 24.7102 111.759 24 110z"/>
<path style="fill:#8d00a1; stroke:none;" d="M38 110C39.2484 110.685 39.5484 110.749 41 111C39.7516 110.315 39.4516 110.251 38 110z"/>
<path style="fill:#ff2020; stroke:none;" d="M41.6667 110.333C41.2222 110.778 42.2778 110.722 42.3333 110.667C42.7777 110.222 41.7223 110.278 41.6667 110.333z"/>
<path style="fill:#ff0000; stroke:none;" d="M25 114C26.653 122.524 31.9269 138.46 24.581 145.566C17.8246 152.102 5.62997 143.244 1.27855 154.015C0.780077 155.249 0.61952 156.681 0.587191 158C0.555456 159.294 0.656161 160.73 0.993056 161.985C4.03191 173.303 17.0904 163.196 23.7716 169.318C30.9541 175.899 26.0494 191.739 25 200C32.7645 201.854 41.0328 202.351 49 201.96C52.0741 201.809 56.2751 201.323 58.2269 198.581C59.9583 196.148 58.7937 192.677 58.429 190C57.6318 184.149 58.9303 178.513 65.0046 176.265C66.5632 175.688 68.3322 175.314 70 175.363C71.3433 175.402 72.8033 175.669 73.9954 176.322C79.8108 179.508 80.1802 184.072 78.9961 190C78.4176 192.897 76.8207 196.892 79.4082 199.258C81.8217 201.464 85.993 201.027 89 200.996C96.6703 200.918 104.282 200 112 200C111.948 193.769 111.442 187.189 110.715 181C110.222 176.81 109.213 171.751 112.514 168.333C118.692 161.934 130.249 173.769 135.258 162.981C135.813 161.786 135.895 160.294 135.917 159C135.944 157.341 135.742 155.599 135.276 154.005C131.793 142.074 117.641 153.138 111.514 145.848C104.693 137.733 110.598 121.366 111 112C103.605 111.847 96.4206 109.974 89 110.001C85.8419 110.012 82.0009 109.772 79.7423 112.434C73.7827 119.458 86.5009 133.403 74.956 138.106C73.404 138.739 71.6601 138.91 70 138.944C68.3265 138.979 66.6056 138.853 65.0008 138.347C52.0894 134.276 62.5634 122.035 57.9684 114.225C56.2134 111.242 52.1929 110.322 49 110.097C41.5212 109.57 32.0577 111.611 25 114z"/>
<path style="fill:#8d00a1; stroke:none;" d="M52.6667 110.333C52.2222 110.778 53.2778 110.722 53.3333 110.667C53.7777 110.222 52.7223 110.278 52.6667 110.333z"/>
<path style="fill:#9f0093; stroke:none;" d="M81 110L82 111L81 110z"/>
<path style="fill:#ba007a; stroke:none;" d="M97.6667 110.333C97.2222 110.778 98.2778 110.722 98.3333 110.667C98.7778 110.222 97.7222 110.278 97.6667 110.333z"/>
<path style="fill:#7100b4; stroke:none;" d="M99 110C100.248 110.685 100.548 110.749 102 111C100.752 110.315 100.452 110.251 99 110z"/>
<path style="fill:#51c235; stroke:none;" d="M145 110L146 111L145 110z"/>
<path style="fill:#8200a9; stroke:none;" d="M32.6667 111.333C32.2222 111.778 33.2778 111.722 33.3333 111.667C33.7777 111.222 32.7222 111.278 32.6667 111.333z"/>
<path style="fill:#d10060; stroke:none;" d="M34.6667 111.333C34.2222 111.778 35.2778 111.722 35.3333 111.667C35.7778 111.222 34.7222 111.278 34.6667 111.333z"/>
<path style="fill:#ff3434; stroke:none;" d="M36 111L37 112L36 111z"/>
<path style="fill:#d10060; stroke:none;" d="M55 111L56 112L55 111z"/>
<path style="fill:#c30071; stroke:none;" d="M104.667 111.333C104.222 111.778 105.278 111.722 105.333 111.667C105.778 111.222 104.722 111.278 104.667 111.333z"/>
<path style="fill:#8200a9; stroke:none;" d="M106 111C107.248 111.685 107.548 111.749 109 112C107.752 111.315 107.452 111.251 106 111z"/>
<path style="fill:#8d00a1; stroke:none;" d="M28 112L29 113L28 112z"/>
<path style="fill:#ef0031; stroke:none;" d="M29.6667 112.333C29.2222 112.778 30.2778 112.722 30.3333 112.667C30.7778 112.222 29.7222 112.278 29.6667 112.333z"/>
<path style="fill:#92009d; stroke:none;" d="M57 112L58 113L57 112z"/>
<path style="fill:#9a7925; stroke:none;" d="M111 112L111 115C111.696 113.446 111.696 113.554 111 112z"/>
<path style="fill:#9dd928; stroke:none;" d="M112 112L113 113L112 112z"/>
<path style="fill:#9f0093; stroke:none;" d="M25 113L26 114L25 113z"/>
<path style="fill:#8200a9; stroke:none;" d="M58 113L59 114L58 113z"/>
<path style="fill:#9f0093; stroke:none;" d="M78 113L79 114L78 113z"/>
<path style="fill:#75cc30; stroke:none;" d="M115 113L116 114L115 113z"/>
<path style="fill:#c3e71f; stroke:none;" d="M119.667 114.333C119.222 114.778 120.278 114.722 120.333 114.667C120.778 114.222 119.722 114.278 119.667 114.333z"/>
<path style="fill:#51c235; stroke:none;" d="M164 114L165 115L164 114z"/>
<path style="fill:#b1e024; stroke:none;" d="M188 114C189.248 114.685 189.548 114.749 191 115C189.752 114.315 189.452 114.251 188 114z"/>
<path style="fill:#67c832; stroke:none;" d="M191 114C192.248 114.685 192.548 114.749 194 115C192.752 114.315 192.452 114.251 191 114z"/>
<path style="fill:#7ace8b; stroke:none;" d="M198 114L198 117C198.696 115.446 198.696 115.554 198 114z"/>
<path style="fill:#9f0093; stroke:none;" d="M59 115L59 118C59.6961 116.446 59.6961 116.554 59 115z"/>
<path style="fill:#5f00be; stroke:none;" d="M77 115L77 119C77.7102 117.241 77.7102 116.759 77 115z"/>
<path style="fill:#9dd928; stroke:none;" d="M123.667 115.333C123.222 115.778 124.278 115.722 124.333 115.667C124.778 115.222 123.722 115.278 123.667 115.333z"/>
<path style="fill:#67c832; stroke:none;" d="M141 115L142 116L141 115z"/>
<path style="fill:#b1e024; stroke:none;" d="M166 115L167 116L166 115z"/>
<path style="fill:#c3e71f; stroke:none;" d="M177.667 115.333C177.222 115.778 178.278 115.722 178.333 115.667C178.778 115.222 177.722 115.278 177.667 115.333z"/>
<path style="fill:#9dd928; stroke:none;" d="M179.667 115.333C179.222 115.778 180.278 115.722 180.333 115.667C180.778 115.222 179.722 115.278 179.667 115.333z"/>
<path style="fill:#51c235; stroke:none;" d="M181.667 115.333C181.222 115.778 182.278 115.722 182.333 115.667C182.778 115.222 181.722 115.278 181.667 115.333z"/>
<path style="fill:#ff5b5b; stroke:none;" d="M25 116L26 117L25 116z"/>
<path style="fill:#75cc30; stroke:none;" d="M129 116C130.248 116.685 130.548 116.749 132 117C130.752 116.315 130.452 116.251 129 116z"/>
<path style="fill:#9dd928; stroke:none;" d="M132 116C133.769 116.779 135.036 116.912 137 117C135.231 116.221 133.964 116.088 132 116z"/>
<path style="fill:#51c235; stroke:none;" d="M137.667 116.333C137.222 116.778 138.278 116.722 138.333 116.667C138.778 116.222 137.722 116.278 137.667 116.333M169 116C170.506 116.683 171.315 116.826 173 117C171.494 116.317 170.685 116.174 169 116z"/>
<path style="fill:#ffc0c0; stroke:none;" d="M25 117L25 120C25.6961 118.446 25.6961 118.554 25 117z"/>
<path style="fill:#ab7025; stroke:none;" d="M110 117L110 120C110.696 118.446 110.696 118.554 110 117z"/>
<path style="fill:#5f00be; stroke:none;" d="M59 118L60 119L59 118z"/>
<path style="fill:#b3e1bc; stroke:none;" d="M199 119L199 122C199.696 120.446 199.696 120.554 199 119z"/>
<path style="fill:#ca0068; stroke:none;" d="M58.3333 120.667C58.2778 120.722 58.2222 121.778 58.6667 121.333C58.7223 121.278 58.7778 120.222 58.3333 120.667z"/>
<path style="fill:#8d00a1; stroke:none;" d="M78.3333 120.667C78.2778 120.722 78.2222 121.778 78.6667 121.333C78.7222 121.278 78.7778 120.222 78.3333 120.667z"/>
<path style="fill:#4fa236; stroke:none;" d="M110 120L111 121L110 120z"/>
<path style="fill:#ff3d3d; stroke:none;" d="M26 121L27 122L26 121z"/>
<path style="fill:#ffa8a8; stroke:none;" d="M26.3333 122.667C26.2778 122.722 26.2222 123.778 26.6667 123.333C26.7222 123.278 26.7778 122.222 26.3333 122.667z"/>
<path style="fill:#92009d; stroke:none;" d="M58.3333 122.667C58.2778 122.722 58.2222 123.778 58.6667 123.333C58.7222 123.278 58.7778 122.222 58.3333 122.667z"/>
<path style="fill:#64c778; stroke:none;" d="M199 122L200 123L199 122z"/>
<path style="fill:#c55a1e; stroke:none;" d="M109 123L109 126C109.696 124.446 109.696 124.554 109 123z"/>
<path style="fill:#5f00be; stroke:none;" d="M58 124L58 127C58.6961 125.446 58.6961 125.554 58 124z"/>
<path style="fill:#ba007a; stroke:none;" d="M79.3333 124.667C79.2778 124.722 79.2222 125.778 79.6667 125.333C79.7222 125.278 79.7778 124.222 79.3333 124.667z"/>
<path style="fill:#7100b4; stroke:none;" d="M79.3333 126.667C79.2778 126.722 79.2222 127.778 79.6667 127.333C79.7222 127.278 79.7778 126.222 79.3333 126.667z"/>
<path style="fill:#739231; stroke:none;" d="M109.333 126.667C109.278 126.722 109.222 127.778 109.667 127.333C109.722 127.278 109.778 126.222 109.333 126.667z"/>
<path style="fill:#a4dcaf; stroke:none;" d="M200 126L200 129C200.696 127.446 200.696 127.554 200 126z"/>
<path style="fill:#ff7d7d; stroke:none;" d="M27.3333 128.667C27.2778 128.722 27.2222 129.778 27.6667 129.333C27.7222 129.278 27.7778 128.222 27.3333 128.667z"/>
<path style="fill:#3e00cd; stroke:none;" d="M79 128L79 132C79.7102 130.241 79.7102 129.759 79 128z"/>
<path style="fill:#3ca938; stroke:none;" d="M109.333 128.667C109.278 128.722 109.222 129.778 109.667 129.333C109.722 129.278 109.778 128.222 109.333 128.667z"/>
<path style="fill:#44bf60; stroke:none;" d="M200 129L201 130L200 129z"/>
<path style="fill:#ffd0d0; stroke:none;" d="M27 130L27 138C28.1614 135.23 28.1614 132.77 27 130z"/>
<path style="fill:#92009d; stroke:none;" d="M79.3333 132.667C79.2778 132.722 79.2222 133.778 79.6667 133.333C79.7222 133.278 79.7778 132.222 79.3333 132.667z"/>
<path style="fill:#b3e1bc; stroke:none;" d="M201 132L201 139C202.059 136.466 202.059 134.534 201 132z"/>
<path style="fill:#8d00a1; stroke:none;" d="M58 134L59 135L58 134z"/>
<path style="fill:#d90055; stroke:none;" d="M79 134L80 135L79 134z"/>
<path style="fill:#92009d; stroke:none;" d="M59 135L60 136L59 135z"/>
<path style="fill:#c30071; stroke:none;" d="M60 136L61 137L60 136z"/>
<path style="fill:#e30047; stroke:none;" d="M78 136L79 137L78 136z"/>
<path style="fill:#92009d; stroke:none;" d="M62 137L63 138L62 137z"/>
<path style="fill:#e30047; stroke:none;" d="M77 137L78 138L77 137z"/>
<path style="fill:#ff8f8f; stroke:none;" d="M27.3333 138.667C27.2778 138.722 27.2222 139.778 27.6667 139.333C27.7222 139.278 27.7778 138.222 27.3333 138.667z"/>
<path style="fill:#c30071; stroke:none;" d="M64 138L65 139L64 138z"/>
<path style="fill:#8200a9; stroke:none;" d="M65 138L66 139L65 138M72.6667 138.333C72.2222 138.778 73.2778 138.722 73.3333 138.667C73.7778 138.222 72.7222 138.278 72.6667 138.333z"/>
<path style="fill:#ba007a; stroke:none;" d="M74 138L75 139L74 138z"/>
<path style="fill:#e0f2e3; stroke:none;" d="M201.333 139.667C201.278 139.722 201.222 140.778 201.667 140.333C201.722 140.278 201.778 139.222 201.333 139.667z"/>
<path style="fill:#ff5b5b; stroke:none;" d="M27 140L28 141L27 140z"/>
<path style="fill:#808b2e; stroke:none;" d="M109 140L109 143C109.696 141.446 109.696 141.554 109 140z"/>
<path style="fill:#44bf60; stroke:none;" d="M200 142L201 143L200 142z"/>
<path style="fill:#ff7d7d; stroke:none;" d="M26 143L27 144L26 143z"/>
<path style="fill:#8cd39a; stroke:none;" d="M200 143L201 144L200 143z"/>
<path style="fill:#ff4848; stroke:none;" d="M25 145L26 146L25 145z"/>
<path style="fill:#ab7025; stroke:none;" d="M110 145L111 146L110 145z"/>
<path style="fill:#56c46e; stroke:none;" d="M199 145L200 146L199 145z"/>
<path style="fill:#ff4b4b; stroke:none;" d="M24 146L25 147L24 146z"/>
<path style="fill:#44bf60; stroke:none;" d="M178 146C179.769 146.779 181.036 146.912 183 147C181.231 146.221 179.964 146.088 178 146z"/>
<path style="fill:#ff8f8f; stroke:none;" d="M7 147L8 148L7 147z"/>
<path style="fill:#ff3434; stroke:none;" d="M8 147C9.50605 147.683 10.3148 147.826 12 148C10.494 147.317 9.68521 147.174 8 147z"/>
<path style="fill:#ff8888; stroke:none;" d="M12.6667 147.333C12.2222 147.778 13.2778 147.722 13.3333 147.667C13.7778 147.222 12.7222 147.278 12.6667 147.333z"/>
<path style="fill:#ffc0c0; stroke:none;" d="M14.6667 147.333C14.2222 147.778 15.2778 147.722 15.3333 147.667C15.7778 147.222 14.7222 147.278 14.6667 147.333z"/>
<path style="fill:#ff8888; stroke:none;" d="M22 147L23 148L22 147z"/>
<path style="fill:#739231; stroke:none;" d="M120.667 147.333C120.222 147.778 121.278 147.722 121.333 147.667C121.778 147.222 120.722 147.278 120.667 147.333z"/>
<path style="fill:#ab7025; stroke:none;" d="M122 147C124.332 147.985 126.457 147.981 129 148C126.668 147.015 124.543 147.019 122 147z"/>
<path style="fill:#649933; stroke:none;" d="M129 147L130 148L129 147z"/>
<path style="fill:#d3edd8; stroke:none;" d="M187.667 147.333C187.222 147.778 188.278 147.722 188.333 147.667C188.778 147.222 187.722 147.278 187.667 147.333z"/>
<path style="fill:#a4dcaf; stroke:none;" d="M189 147C190.248 147.685 190.548 147.749 192 148C190.752 147.315 190.452 147.251 189 147z"/>
<path style="fill:#44bf60; stroke:none;" d="M192 147L193 148L192 147z"/>
<path style="fill:#ff3434; stroke:none;" d="M5 148L6 149L5 148z"/>
<path style="fill:#739231; stroke:none;" d="M113 148C114.248 148.685 114.548 148.749 116 149C114.752 148.315 114.452 148.251 113 148z"/>
<path style="fill:#da4517; stroke:none;" d="M116.667 148.333C116.222 148.778 117.278 148.722 117.333 148.667C117.778 148.222 116.722 148.278 116.667 148.333z"/>
<path style="fill:#808b2e; stroke:none;" d="M132 148L133 149L132 148z"/>
<path style="fill:#b3e1bc; stroke:none;" d="M194 148C195.248 148.685 195.548 148.749 197 149C195.752 148.315 195.452 148.251 194 148z"/>
<path style="fill:#ff9c9c; stroke:none;" d="M3 149L4 150L3 149z"/>
<path style="fill:#da4517; stroke:none;" d="M133 149L134 150L133 149z"/>
<path style="fill:#c6e8cc; stroke:none;" d="M175 149L176 150L175 149z"/>
<path style="fill:#ff9c9c; stroke:none;" d="M2 150L3 151L2 150z"/>
<path style="fill:#c9561c; stroke:none;" d="M134 150L135 151L134 150z"/>
<path style="fill:#7ace8b; stroke:none;" d="M174 150L175 151L174 150z"/>
<path style="fill:#ff4848; stroke:none;" d="M1 152L2 153L1 152z"/>
<path style="fill:#8c852c; stroke:none;" d="M135 152L136 153L135 152z"/>
<path style="fill:#7ace8b; stroke:none;" d="M173 152L174 153L173 152z"/>
<path style="fill:#f2240c; stroke:none;" d="M135.333 153.667C135.278 153.722 135.222 154.778 135.667 154.333C135.722 154.278 135.778 153.222 135.333 153.667z"/>
<path style="fill:#ffa8a8; stroke:none;" d="M0 154L1 155L0 154z"/>
<path style="fill:#ff3d3d; stroke:none;" d="M0.333333 155.667C0.277779 155.722 0.222226 156.778 0.666667 156.333C0.722232 156.278 0.777768 155.222 0.333333 155.667z"/>
<path style="fill:#808b2e; stroke:none;" d="M136 156L136 161C136.83 158.97 136.83 158.03 136 156z"/>
<path style="fill:#64c778; stroke:none;" d="M172 156L172 160C172.71 158.241 172.71 157.759 172 156z"/>
<path style="fill:#ff3d3d; stroke:none;" d="M0 159L0 162C0.696105 160.446 0.696098 160.554 0 159z"/>
<path style="fill:#ff9c9c; stroke:none;" d="M0 162L1 163L0 162z"/>
<path style="fill:#c0e6c7; stroke:none;" d="M173 162L174 163L173 162z"/>
<path style="fill:#ffffff; stroke:none;" d="M0 163L0 226L150 226C146.898 222.259 145.266 218.936 145.039 214C144.856 209.99 146.28 203.716 142.682 200.858C138.977 197.915 132.4 199 128 199C116.986 199.001 106.002 200.557 95 201.039C90.2706 201.247 85.5451 202.8 81.0625 200.427C72.4088 195.848 84.8073 182.011 74.9414 177.009C73.7533 176.407 72.3059 176.229 71 176.106C69.3797 175.952 67.6096 175.934 66.0039 176.228C53.028 178.604 63.9296 193.426 57.6674 199.486C50.1613 206.75 33.1128 201.391 24 201C25.8148 193.633 27.6175 184.589 26.8256 177C26.4553 173.451 25.5131 169.404 21.8912 167.897C17.0424 165.881 11.9387 169.202 7.00463 168.258C3.83269 167.651 1.97913 165.317 0 163z"/>
<path style="fill:#b96521; stroke:none;" d="M135 163L136 164L135 163z"/>
<path style="fill:#7ace8b; stroke:none;" d="M173 163L174 164L173 163z"/>
<path style="fill:#ffb6b6; stroke:none;" d="M1 165L2 166L1 165z"/>
<path style="fill:#ab7025; stroke:none;" d="M134 165L135 166L134 165z"/>
<path style="fill:#c0e6c7; stroke:none;" d="M174 165L175 166L174 165z"/>
<path style="fill:#ff7d7d; stroke:none;" d="M2 166L3 167L2 166z"/>
<path style="fill:#4aa436; stroke:none;" d="M115 166L116 167L115 166z"/>
<path style="fill:#9f7928; stroke:none;" d="M116 166L117 167L116 166z"/>
<path style="fill:#da4517; stroke:none;" d="M117 166L118 167L117 166z"/>
<path style="fill:#d24d1a; stroke:none;" d="M133 166L134 167L133 166z"/>
<path style="fill:#e0f2e3; stroke:none;" d="M193.667 166.333C193.222 166.778 194.278 166.722 194.333 166.667C194.778 166.222 193.722 166.278 193.667 166.333z"/>
<path style="fill:#ffc0c0; stroke:none;" d="M3 167L4 168L3 167z"/>
<path style="fill:#ff3434; stroke:none;" d="M4 167L5 168L4 167z"/>
<path style="fill:#ff7d7d; stroke:none;" d="M12.6667 167.333C12.2222 167.778 13.2778 167.722 13.3333 167.667C13.7778 167.222 12.7222 167.278 12.6667 167.333z"/>
<path style="fill:#ffc9c9; stroke:none;" d="M14.6667 167.333C14.2222 167.778 15.2778 167.722 15.3333 167.667C15.7778 167.222 14.7222 167.278 14.6667 167.333M21 167L22 168L21 167z"/>
<path style="fill:#ff7d7d; stroke:none;" d="M22 167L23 168L22 167z"/>
<path style="fill:#8c852c; stroke:none;" d="M119.667 167.333C119.222 167.778 120.278 167.722 120.333 167.667C120.778 167.222 119.722 167.278 119.667 167.333z"/>
<path style="fill:#da4517; stroke:none;" d="M121.667 167.333C121.222 167.778 122.278 167.722 122.333 167.667C122.778 167.222 121.722 167.278 121.667 167.333z"/>
<path style="fill:#ab7025; stroke:none;" d="M132 167L133 168L132 167z"/>
<path style="fill:#a4dcaf; stroke:none;" d="M190 167L191 168L190 167z"/>
<path style="fill:#64c778; stroke:none;" d="M191 167L192 168L191 167z"/>
<path style="fill:#8cd39a; stroke:none;" d="M196 167L197 168L196 167z"/>
<path style="fill:#ffd0d0; stroke:none;" d="M6 168C7.50604 168.683 8.31479 168.826 10 169C8.49396 168.317 7.68521 168.174 6 168z"/>
<path style="fill:#c55a1e; stroke:none;" d="M111 168L112 169L111 168z"/>
<path style="fill:#739231; stroke:none;" d="M125 168C126.248 168.685 126.548 168.749 128 169C126.752 168.315 126.452 168.251 125 168z"/>
<path style="fill:#c55a1e; stroke:none;" d="M128 168C129.248 168.685 129.548 168.749 131 169C129.752 168.315 129.452 168.251 128 168z"/>
<path style="fill:#b3e1bc; stroke:none;" d="M178.667 168.333C178.222 168.778 179.278 168.722 179.333 168.667C179.778 168.222 178.722 168.278 178.667 168.333z"/>
<path style="fill:#d3edd8; stroke:none;" d="M180 168C181.506 168.683 182.315 168.826 184 169C182.494 168.317 181.685 168.174 180 168z"/>
<path style="fill:#a4dcaf; stroke:none;" d="M184 168C185.248 168.685 185.548 168.749 187 169C185.752 168.315 185.452 168.251 184 168z"/>
<path style="fill:#649933; stroke:none;" d="M111 169L112 170L111 169z"/>
<path style="fill:#ffb6b6; stroke:none;" d="M25 170L26 171L25 170z"/>
<path style="fill:#8cd39a; stroke:none;" d="M199 170L200 171L199 170z"/>
<path style="fill:#c55a1e; stroke:none;" d="M110 171L110 178C111.059 175.466 111.059 173.534 110 171z"/>
<path style="fill:#ff7d7d; stroke:none;" d="M26 172L27 173L26 172z"/>
<path style="fill:#c6e8cc; stroke:none;" d="M200 172L201 173L200 172z"/>
<path style="fill:#ffd0d0; stroke:none;" d="M26.3333 173.667C26.2778 173.722 26.2222 174.778 26.6667 174.333C26.7222 174.278 26.7778 173.222 26.3333 173.667z"/>
<path style="fill:#56c46e; stroke:none;" d="M200.333 173.667C200.278 173.722 200.222 174.778 200.667 174.333C200.722 174.278 200.778 173.222 200.333 173.667z"/>
<path style="fill:#ff7d7d; stroke:none;" d="M67 175C68.769 175.779 70.0359 175.912 72 176C70.231 175.221 68.9641 175.088 67 175z"/>
<path style="fill:#ff3434; stroke:none;" d="M72 175L73 176L72 175z"/>
<path style="fill:#ff7d7d; stroke:none;" d="M63 176L64 177L63 176z"/>
<path style="fill:#ffc0c0; stroke:none;" d="M74 176L75 177L74 176z"/>
<path style="fill:#ff4848; stroke:none;" d="M75 176L76 177L75 176z"/>
<path style="fill:#ffb6b6; stroke:none;" d="M61 177L62 178L61 177z"/>
<path style="fill:#ffc0c0; stroke:none;" d="M76 177L77 178L76 177M60 178L61 179L60 178z"/>
<path style="fill:#f2240c; stroke:none;" d="M110.333 178.667C110.278 178.722 110.222 179.778 110.667 179.333C110.722 179.278 110.778 178.222 110.333 178.667z"/>
<path style="fill:#ff5b5b; stroke:none;" d="M59 179L60 180L59 179z"/>
<path style="fill:#ffc9c9; stroke:none;" d="M59 180L60 181L59 180z"/>
<path style="fill:#ff6767; stroke:none;" d="M79 180L80 181L79 180z"/>
<path style="fill:#7ace8b; stroke:none;" d="M200.333 180.667C200.278 180.722 200.222 181.778 200.667 181.333C200.722 181.278 200.778 180.222 200.333 180.667z"/>
<path style="fill:#ffdddd; stroke:none;" d="M79.3333 181.667C79.2777 181.722 79.2222 182.778 79.6667 182.333C79.7222 182.278 79.7778 181.222 79.3333 181.667z"/>
<path style="fill:#ff6767; stroke:none;" d="M58.3333 182.667C58.2778 182.722 58.2222 183.778 58.6667 183.333C58.7222 183.278 58.7778 182.222 58.3333 182.667z"/>
<path style="fill:#e0f2e3; stroke:none;" d="M200 182L200 186C200.71 184.241 200.71 183.759 200 182z"/>
<path style="fill:#ffb6b6; stroke:none;" d="M79 183L79 186C79.6961 184.446 79.6961 184.554 79 183z"/>
<path style="fill:#4fa236; stroke:none;" d="M111.333 183.667C111.278 183.722 111.222 184.778 111.667 184.333C111.722 184.278 111.778 183.222 111.333 183.667z"/>
<path style="fill:#ffc9c9; stroke:none;" d="M26.3333 184.667C26.2778 184.722 26.2222 185.778 26.6667 185.333C26.7222 185.278 26.7778 184.222 26.3333 184.667z"/>
<path style="fill:#ff8f8f; stroke:none;" d="M58 184L58 189C58.8299 186.97 58.8299 186.03 58 184z"/>
<path style="fill:#808b2e; stroke:none;" d="M111.333 185.667C111.278 185.722 111.222 186.778 111.667 186.333C111.722 186.278 111.778 185.222 111.333 185.667z"/>
<path style="fill:#ffa8a8; stroke:none;" d="M26 186L26 189C26.6961 187.446 26.6961 187.554 26 186z"/>
<path style="fill:#ff4b4b; stroke:none;" d="M79.3333 186.667C79.2778 186.722 79.2222 187.778 79.6667 187.333C79.7222 187.278 79.7778 186.222 79.3333 186.667z"/>
<path style="fill:#ab7025; stroke:none;" d="M111 187L111 190C111.696 188.446 111.696 188.554 111 187z"/>
<path style="fill:#ff3d3d; stroke:none;" d="M26.3333 189.667C26.2778 189.722 26.2222 190.778 26.6667 190.333C26.7222 190.278 26.7778 189.222 26.3333 189.667z"/>
<path style="fill:#ff4b4b; stroke:none;" d="M58.3333 189.667C58.2778 189.722 58.2222 190.778 58.6667 190.333C58.7222 190.278 58.7778 189.222 58.3333 189.667z"/>
<path style="fill:#da4517; stroke:none;" d="M111 190L111 193C111.696 191.446 111.696 191.554 111 190z"/>
<path style="fill:#64c778; stroke:none;" d="M199.333 190.667C199.278 190.722 199.222 191.778 199.667 191.333C199.722 191.278 199.778 190.222 199.333 190.667z"/>
<path style="fill:#ffb6b6; stroke:none;" d="M78 191L79 192L78 191z"/>
<path style="fill:#ff7d7d; stroke:none;" d="M78 192L79 193L78 192z"/>
<path style="fill:#8cd39a; stroke:none;" d="M199.333 192.667C199.278 192.722 199.222 193.778 199.667 193.333C199.722 193.278 199.778 192.222 199.333 192.667z"/>
<path style="fill:#ffa8a8; stroke:none;" d="M25 193L25 196C25.6961 194.446 25.6961 194.554 25 193z"/>
<path style="fill:#ff8f8f; stroke:none;" d="M59.3333 194.667C59.2778 194.722 59.2222 195.778 59.6667 195.333C59.7222 195.278 59.7778 194.222 59.3333 194.667z"/>
<path style="fill:#00af20; stroke:none;" d="M198 194C197.89 196.442 197.572 198.623 197 201C199.293 198.997 199.14 196.734 198 194z"/>
<path style="fill:#c0e6c7; stroke:none;" d="M199.333 194.667C199.278 194.722 199.222 195.778 199.667 195.333C199.722 195.278 199.778 194.222 199.333 194.667z"/>
<path style="fill:#ffc0c0; stroke:none;" d="M77 195L78 196L77 195z"/>
<path style="fill:#ff3434; stroke:none;" d="M25 196L26 197L25 196z"/>
<path style="fill:#ff5b5b; stroke:none;" d="M59 196L60 197L59 196z"/>
<path style="fill:#ff7d7d; stroke:none;" d="M77 196L78 197L77 196z"/>
<path style="fill:#e0f2e3; stroke:none;" d="M199.333 196.667C199.278 196.722 199.222 197.778 199.667 197.333C199.722 197.278 199.778 196.222 199.333 196.667z"/>
<path style="fill:#649933; stroke:none;" d="M112 197L112 200C112.696 198.446 112.696 198.554 112 197z"/>
<path style="fill:#ff8f8f; stroke:none;" d="M59 198L60 199L59 198z"/>
<path style="fill:#ff3434; stroke:none;" d="M77 198L78 199L77 198z"/>
<path style="fill:#00af20; stroke:none;" d="M115 198C117.052 198.874 118.747 198.953 121 199C118.948 198.126 117.253 198.047 115 198z"/>
<path style="fill:#8cd39a; stroke:none;" d="M123 198C127.217 199.769 132.459 199 137 199C132.783 197.231 127.541 198 123 198z"/>
<path style="fill:#44bf60; stroke:none;" d="M168.667 198.333C168.222 198.778 169.278 198.722 169.333 198.667C169.778 198.222 168.722 198.278 168.667 198.333z"/>
<path style="fill:#7ace8b; stroke:none;" d="M170 198C173.163 199.327 176.586 199 180 199C176.837 197.673 173.414 198 170 198z"/>
<path style="fill:#56c46e; stroke:none;" d="M180 198C181.248 198.685 181.548 198.749 183 199C181.752 198.315 181.452 198.251 180 198z"/>
<path style="fill:#ffc0c0; stroke:none;" d="M24.3333 199.667C24.2778 199.722 24.2222 200.778 24.6667 200.333C24.7222 200.278 24.7778 199.222 24.3333 199.667z"/>
<path style="fill:#ff6767; stroke:none;" d="M58 199L59 200L58 199z"/>
<path style="fill:#ff5b5b; stroke:none;" d="M78 199L79 200L78 199z"/>
<path style="fill:#a4dcaf; stroke:none;" d="M113 199C114.248 199.685 114.548 199.749 116 200C114.752 199.315 114.452 199.251 113 199z"/>
<path style="fill:#e0f2e3; stroke:none;" d="M116.667 199.333C116.222 199.778 117.278 199.722 117.333 199.667C117.778 199.222 116.722 199.278 116.667 199.333z"/>
<path style="fill:#c6e8cc; stroke:none;" d="M140 199L141 200L140 199z"/>
<path style="fill:#8cd39a; stroke:none;" d="M141 199L142 200L141 199z"/>
<path style="fill:#a4dcaf; stroke:none;" d="M166 199L167 200L166 199z"/>
<path style="fill:#c0e6c7; stroke:none;" d="M187 199C188.248 199.685 188.548 199.749 190 200C188.752 199.315 188.452 199.251 187 199z"/>
<path style="fill:#44bf60; stroke:none;" d="M190.667 199.333C190.222 199.778 191.278 199.722 191.333 199.667C191.778 199.222 190.722 199.278 190.667 199.333z"/>
<path style="fill:#ff4b4b; stroke:none;" d="M25.6667 200.333C25.2222 200.778 26.2778 200.722 26.3333 200.667C26.7778 200.222 25.7222 200.278 25.6667 200.333z"/>
<path style="fill:#ff3434; stroke:none;" d="M56 200L57 201L56 200z"/>
<path style="fill:#ffc0c0; stroke:none;" d="M57 200L58 201L57 200z"/>
<path style="fill:#ff7d7d; stroke:none;" d="M80 200L81 201L80 200z"/>
<path style="fill:#ff3d3d; stroke:none;" d="M95 200C96.2484 200.685 96.5484 200.749 98 201C96.7517 200.315 96.4516 200.251 95 200z"/>
<path style="fill:#ff7d7d; stroke:none;" d="M98 200C99.2484 200.685 99.5484 200.749 101 201C99.7517 200.315 99.4516 200.251 98 200z"/>
<path style="fill:#ffc0c0; stroke:none;" d="M101 200C102.769 200.779 104.036 200.912 106 201C104.231 200.221 102.964 200.088 101 200z"/>
<path style="fill:#b3e1bc; stroke:none;" d="M143 200L144 201L143 200z"/>
<path style="fill:#8cd39a; stroke:none;" d="M165 200L166 201L165 200z"/>
<path style="fill:#c6e8cc; stroke:none;" d="M194 200L195 201L194 200z"/>
<path style="fill:#56c46e; stroke:none;" d="M195.667 200.333C195.222 200.778 196.278 200.722 196.333 200.667C196.778 200.222 195.722 200.278 195.667 200.333z"/>
<path style="fill:#ffc9c9; stroke:none;" d="M29.6667 201.333C29.2222 201.778 30.2778 201.722 30.3333 201.667C30.7778 201.222 29.7222 201.278 29.6667 201.333z"/>
<path style="fill:#ff8f8f; stroke:none;" d="M31.6667 201.333C31.2222 201.778 32.2778 201.722 32.3333 201.667C32.7778 201.222 31.7222 201.278 31.6667 201.333z"/>
<path style="fill:#ff4b4b; stroke:none;" d="M33.6667 201.333C33.2222 201.778 34.2778 201.722 34.3333 201.667C34.7778 201.222 33.7222 201.278 33.6667 201.333z"/>
<path style="fill:#ff6767; stroke:none;" d="M53 201L54 202L53 201z"/>
<path style="fill:#ffa8a8; stroke:none;" d="M54 201L55 202L54 201z"/>
<path style="fill:#ffb6b6; stroke:none;" d="M83 201C84.769 201.779 86.0359 201.912 88 202C86.231 201.221 84.9641 201.088 83 201z"/>
<path style="fill:#ffdddd; stroke:none;" d="M88 201C89.2484 201.685 89.5484 201.749 91 202C89.7517 201.315 89.4516 201.251 88 201z"/>
<path style="fill:#c0e6c7; stroke:none;" d="M144 201L145 202L144 201z"/>
<path style="fill:#ffc0c0; stroke:none;" d="M41 202C43.8897 203.213 46.8741 202.998 50 203C47.1103 201.787 44.1259 202.002 41 202z"/>
<path style="fill:#8cd39a; stroke:none;" d="M145.333 203.667C145.278 203.722 145.222 204.778 145.667 204.333C145.722 204.278 145.778 203.222 145.333 203.667z"/>
<path style="fill:#56c46e; stroke:none;" d="M164 203L164 208C164.83 205.97 164.83 205.03 164 203z"/>
<path style="fill:#d3edd8; stroke:none;" d="M145 205L145 211C145.951 208.715 145.951 207.285 145 205z"/>
<path style="fill:#00b12a; stroke:none;" d="M146 205L146 221C147.812 216.681 147.812 209.319 146 205z"/>
<path style="fill:#a4dcaf; stroke:none;" d="M145 211L145 219C146.161 216.23 146.161 213.77 145 211z"/>
<path style="fill:#c0e6c7; stroke:none;" d="M165 211L165 217C165.951 214.715 165.951 213.285 165 211z"/>
<path style="fill:#e0f2e3; stroke:none;" d="M165.333 217.667C165.278 217.722 165.222 218.778 165.667 218.333C165.722 218.278 165.778 217.222 165.333 217.667z"/>
<path style="fill:#56c46e; stroke:none;" d="M164 220L165 221L164 220z"/>
<path style="fill:#44bf60; stroke:none;" d="M146 221L147 222L146 221z"/>
<path style="fill:#c0e6c7; stroke:none;" d="M164 221L165 222L164 221z"/>
<path style="fill:#c6e8cc; stroke:none;" d="M146 222L147 223L146 222z"/>
<path style="fill:#77cd88; stroke:none;" d="M147 223L148 224L147 223z"/>
<path style="fill:#a4dcaf; stroke:none;" d="M148 224L149 225L148 224z"/>
<path style="fill:#44bf60; stroke:none;" d="M161 224L162 225L161 224z"/>
<path style="fill:#b3e1bc; stroke:none;" d="M150 225L151 226L150 225z"/>
<path style="fill:#44bf60; stroke:none;" d="M151.667 225.333C151.222 225.778 152.278 225.722 152.333 225.667C152.778 225.222 151.722 225.278 151.667 225.333M156 225C157.248 225.685 157.548 225.749 159 226C157.752 225.315 157.452 225.251 156 225z"/>
<path style="fill:#a4dcaf; stroke:none;" d="M159 225L160 226L159 225z"/>
</svg>
